<svg width="44" height="41" viewBox="0 0 44 41" fill="none" xmlns="http://www.w3.org/2000/svg">
<path d="M26.4647 10.0379V22.8496C30.9339 25.4527 34.4509 22.8463 34.4509 15.97C34.4509 8.91559 32.3918 5.78428 26.3209 3.2692C23.9341 2.29778 18.9464 0.683333 15.8122 0V38.2534L23.6138 41V8.91668C23.6138 7.41294 24.1699 6.40898 25.0662 6.75571C26.2361 7.14903 26.4646 8.53306 26.4646 10.0379H26.4647ZM40.7039 26.8793C37.7034 25.506 33.8803 25.0343 30.7594 25.4505C27.6367 25.8677 25.4174 26.8151 25.4174 26.8151L24.9746 26.9955V32.1954L32.6564 28.9293C33.9667 28.3622 35.8891 28.2405 36.951 28.6611C38.013 29.0816 37.8132 29.8811 36.5046 30.4471L24.9746 35.4068V40.4166L40.6426 33.6229C40.6426 33.6229 42.7485 32.6894 43.6087 31.3804C44.4675 30.0702 44.0859 28.1699 40.7039 26.8793ZM0.825237 29.8279C-0.756835 31.2446 -0.132624 33.5201 3.29298 34.8832C7.01693 36.3651 10.5882 37.2667 13.9888 36.5412C14.2095 36.4938 14.451 36.4433 14.6664 36.3936V31.7345L11.5059 32.8667C10.1974 33.435 8.27325 33.5534 7.21128 33.134C6.14942 32.7135 6.34929 31.914 7.65783 31.3479L14.6664 28.4592V23.2521L4.77613 27.5342C4.77613 27.5342 2.28853 28.5185 0.825237 29.8278V29.8279Z" fill="#0070D1"/>
</svg>
