<?xml version="1.0" encoding="iso-8859-1"?>
<!-- Generator: Adobe Illustrator 19.0.0, SVG Export Plug-In . SVG Version: 6.00 Build 0)  -->
<svg version="1.1" id="Layer_1" xmlns="http://www.w3.org/2000/svg" xmlns:xlink="http://www.w3.org/1999/xlink" x="0px" y="0px"
	 viewBox="0 0 299.215 299.215" style="enable-background:new 0 0 299.215 299.215;" xml:space="preserve">
<g id="XMLID_106_">
	<path id="XMLID_107_" d="M22.347,0c-2.75,0-4.799,2.241-4.555,4.98l23.184,260.047c0.244,2.739,2.611,5.582,5.262,6.318
		l98.381,27.316c2.65,0.736,6.986,0.736,9.637,0.002l98.68-27.361c2.65-0.735,5.02-3.578,5.264-6.316L281.422,4.98
		c0.246-2.739-1.805-4.98-4.555-4.98H22.347z M232.049,59.641c-0.219,2.443-0.598,6.684-0.842,9.423l-0.611,6.823
		c-0.246,2.738-0.596,6.654-0.781,8.701c-0.184,2.048-0.359,3.723-0.391,3.723c-0.031,0-2.307,0-5.057,0h-69.76
		c-2.75,0-5.023,0-5.053,0s-2.305,0-5.055,0h-36.74c-2.75,0-4.799,2.241-4.555,4.98l2.143,23.955c0.244,2.738,2.695,4.98,5.445,4.98
		H144.5c2.75,0,5.025,0,5.055,0s2.303,0,5.053,0h57.939c2.75,0,7.006,0,9.457,0c2.449,0,4.273,1.999,4.051,4.442
		c-0.223,2.443-0.604,6.685-0.848,9.423l-6.891,77.228c-0.246,2.739-0.557,6.238-0.691,7.776c-0.137,1.537-2.416,3.396-5.066,4.131
		l-58.133,16.119c-2.65,0.734-4.852,1.342-4.893,1.351c-0.041,0.009-2.242-0.586-4.893-1.321l-58.195-16.148
		c-2.65-0.735-5.018-3.578-5.262-6.317l-3.746-42.045c-0.244-2.739,1.807-4.98,4.557-4.98h5.311c2.75,0,7.25,0,10,0h7.92
		c2.75,0,5.199,2.241,5.445,4.98l1.469,16.459c0.244,2.739,2.615,5.566,5.271,6.283l27.221,7.351
		c2.654,0.717,4.836,1.304,4.848,1.304s2.193-0.588,4.848-1.305l27.27-7.369c2.654-0.717,5.027-3.545,5.273-6.283l2.957-32.976
		c0.246-2.739-1.803-4.98-4.553-4.98h-30.666c-2.75,0-5.023,0-5.053,0s-2.305,0-5.055,0H80.511c-2.75,0-5.199-2.242-5.443-4.98
		l-7.256-81.306c-0.244-2.739-0.623-6.979-0.842-9.423c-0.217-2.443,1.854-4.442,4.604-4.442H144.5c2.75,0,5.025,0,5.055,0
		s2.303,0,5.053,0h72.838C230.195,55.198,232.267,57.197,232.049,59.641z"/>
</g>
<g>
</g>
<g>
</g>
<g>
</g>
<g>
</g>
<g>
</g>
<g>
</g>
<g>
</g>
<g>
</g>
<g>
</g>
<g>
</g>
<g>
</g>
<g>
</g>
<g>
</g>
<g>
</g>
<g>
</g>
</svg>
