<svg version="1.2" xmlns="http://www.w3.org/2000/svg" viewBox="0 0 787 573" width="787" height="573">
	<title>github-svg</title>
	<style>
		.s0 { fill: #3f3d56 } 
		.s1 { fill: #6c63ff } 
		.s2 { fill: #2f2e41 } 
		.s3 { fill: #ffffff } 
		.s4 { fill: #ffb6b6 } 
		.s5 { fill: #e6e6e6 } 
		.s6 { opacity: .2;fill: #000000 } 
	</style>
	<path id="Layer" fill-rule="evenodd" class="s0" d="m613.7 58.8v353.4h-117l2.1-28.9l11.5-159h-231.6l11.5 159l2.1 28.9h-118.3v-344.1q3.3-2.4 6.6-4.8q0.6-0.4 1.3-0.9q9.5-6.6 19.5-12.7q9.9-6.1 20.1-11.5q10.3-5.5 20.9-10.3q10.6-4.8 21.4-9l6.3 86h40.1v-100.4q3.9-1 7.9-1.9v0.1c0 13.4 2.6 26.7 7.8 39.1c5.1 12.4 12.6 23.7 22.1 33.2c9.5 9.5 20.8 17 33.2 22.1c12.4 5.2 25.7 7.8 39.2 7.8h49.2v-104.9q4 0.7 7.9 1.5v103.4h41.5l6.5-90.2q10.6 3.7 20.9 7.9q10.3 4.3 20.4 9.2q10.1 4.9 19.8 10.3q9.8 5.5 19.2 11.5q1.3 0.9 2.6 1.7q2.7 1.7 5.3 3.5zm-303.5 54h-39.6l6.2 85.3h33.4zm159.4 0h-151.5v85.3h58.7v-1.7q0-1.2 0.5-2.4q0.4-1.1 1.3-2q0.9-0.8 2-1.3q1.1-0.5 2.4-0.5h24.4q1.2 0 2.3 0.5q1.2 0.5 2 1.3q0.9 0.9 1.4 2q0.4 1.2 0.4 2.4v1.7h56.1zm42.6 85.3l6.2-85.3h-40.9v85.3z" />
	<path id="Layer" class="s0" d="m786.8 435.3q-3.2 3.8-6.6 7.6q-3.4 3.7-6.9 7.4q-3.6 3.6-7.2 7.1q-3.6 3.5-7.4 6.8l-730.6-1q-3.7-3.3-7.4-6.8q-3.6-3.5-7.1-7.1q-3.6-3.7-7-7.4q-3.3-3.8-6.6-7.6z" />
	<path id="Layer" class="s0" d="m495.7 340q0.4-0.7 0.9-1.3q0.6-0.6 1.4-0.9q0.7-0.3 1.5-0.3h127.1q0.8 0 1.5 0.3q0.8 0.3 1.4 0.9q0.5 0.6 0.9 1.3q0.3 0.8 0.3 1.6v85.7q0 0.8-0.3 1.6q-0.4 0.7-0.9 1.3q-0.6 0.6-1.4 0.9q-0.7 0.3-1.5 0.3h-127.1q-0.8 0-1.5-0.3q-0.8-0.3-1.4-0.9q-0.5-0.6-0.9-1.3q-0.3-0.8-0.3-1.6v-85.7q0-0.8 0.3-1.6z" />
	<path id="Layer" class="s1" d="m498.6 341.8q0.1-0.4 0.5-0.7q0.3-0.3 0.7-0.5q0.4-0.1 0.8-0.1h124.9q0.4 0 0.8 0.1q0.4 0.2 0.8 0.5q0.3 0.3 0.4 0.7q0.2 0.4 0.2 0.9v83.5q0 0.5-0.2 0.9q-0.1 0.4-0.4 0.7q-0.4 0.3-0.8 0.5q-0.4 0.1-0.8 0.1h-124.9q-0.4 0-0.8-0.1q-0.4-0.2-0.7-0.5q-0.4-0.3-0.5-0.7q-0.2-0.4-0.2-0.9v-83.5q0-0.5 0.2-0.9z" />
	<path id="Layer" class="s2" d="m492.5 443.5q-0.2-0.2-0.2-0.5q-0.1-0.2-0.1-0.5q0-0.3 0.1-0.6l2.1-10q0-0.3 0.2-0.6q0.1-0.3 0.3-0.5q0.2-0.2 0.5-0.4q0.2-0.2 0.5-0.3q0.1-0.1 0.2-0.1q0.2 0 0.3 0q0.1-0.1 0.2-0.1q0.1 0 0.2 0h131.8q0.1 0 0.2 0q0.1 0 0.2 0.1q0.2 0 0.3 0q0.1 0 0.2 0.1q0.3 0.1 0.5 0.3q0.3 0.2 0.5 0.4q0.2 0.2 0.3 0.5q0.2 0.3 0.2 0.6l2.2 10q0.1 0.6-0.1 1.1q-0.1 0.6-0.5 1q-0.3 0.5-0.8 0.7q-0.5 0.2-1.1 0.2h-136q-0.3 0-0.5 0q-0.3-0.1-0.6-0.2q-0.2-0.1-0.4-0.3q-0.3-0.2-0.4-0.4q-0.2-0.2-0.3-0.5z" />
	<path id="Layer" class="s0" d="m627.6 433.7c0 0.3-0.2 0.5-0.5 0.5h-3.2c-0.2 0-0.5-0.2-0.5-0.5v-1.5c0-0.3 0.3-0.5 0.5-0.5h3.2c0.3 0 0.5 0.2 0.5 0.5z" />
	<path id="Layer" class="s0" d="m619.3 433.7c0 0.3-0.3 0.5-0.5 0.5h-3.2c-0.3 0-0.5-0.2-0.5-0.5v-1.5c0-0.3 0.2-0.5 0.5-0.5h3.2c0.2 0 0.5 0.2 0.5 0.5z" />
	<path id="Layer" class="s0" d="m610.9 433.7c0 0.3-0.2 0.5-0.5 0.5h-3.2c-0.3 0-0.5-0.2-0.5-0.5v-1.5c0-0.3 0.2-0.5 0.5-0.5h3.2c0.3 0 0.5 0.2 0.5 0.5z" />
	<path id="Layer" class="s0" d="m602.5 433.7c0 0.3-0.2 0.5-0.5 0.5h-3.2c-0.3 0-0.5-0.2-0.5-0.5v-1.5c0-0.3 0.2-0.5 0.5-0.5h3.2c0.3 0 0.5 0.2 0.5 0.5z" />
	<path id="Layer" class="s0" d="m594.1 433.7c0 0.3-0.2 0.5-0.5 0.5h-3.2c-0.2 0-0.5-0.2-0.5-0.5v-1.5c0-0.3 0.3-0.5 0.5-0.5h3.2c0.3 0 0.5 0.2 0.5 0.5z" />
	<path id="Layer" class="s0" d="m585.7 433.7c0 0.3-0.2 0.5-0.4 0.5h-3.3c-0.2 0-0.4-0.2-0.4-0.5v-1.5c0-0.3 0.2-0.5 0.4-0.5h3.3c0.2 0 0.4 0.2 0.4 0.5z" />
	<path id="Layer" class="s0" d="m577.4 433.7c0 0.3-0.2 0.5-0.5 0.5h-3.2c-0.3 0-0.5-0.2-0.5-0.5v-1.5c0-0.3 0.2-0.5 0.5-0.5h3.2c0.3 0 0.5 0.2 0.5 0.5z" />
	<path id="Layer" class="s0" d="m569 433.7c0 0.3-0.2 0.5-0.5 0.5h-3.2c-0.3 0-0.5-0.2-0.5-0.5v-1.5c0-0.3 0.2-0.5 0.5-0.5h3.2c0.3 0 0.5 0.2 0.5 0.5z" />
	<path id="Layer" class="s0" d="m560.6 433.7c0 0.3-0.2 0.5-0.5 0.5h-3.2c-0.3 0-0.5-0.2-0.5-0.5v-1.5c0-0.3 0.2-0.5 0.5-0.5h3.2c0.3 0 0.5 0.2 0.5 0.5z" />
	<path id="Layer" class="s0" d="m552.2 433.7c0 0.3-0.2 0.5-0.4 0.5h-3.3c-0.2 0-0.4-0.2-0.4-0.5v-1.5c0-0.3 0.2-0.5 0.4-0.5h3.3c0.2 0 0.4 0.2 0.4 0.5z" />
	<path id="Layer" class="s0" d="m543.9 433.7c0 0.3-0.3 0.5-0.5 0.5h-3.2c-0.3 0-0.5-0.2-0.5-0.5v-1.5c0-0.3 0.2-0.5 0.5-0.5h3.2c0.2 0 0.5 0.2 0.5 0.5z" />
	<path id="Layer" class="s0" d="m535.5 433.7c0 0.3-0.2 0.5-0.5 0.5h-3.2c-0.3 0-0.5-0.2-0.5-0.5v-1.5c0-0.3 0.2-0.5 0.5-0.5h3.2c0.3 0 0.5 0.2 0.5 0.5z" />
	<path id="Layer" class="s0" d="m527.1 433.7c0 0.3-0.2 0.5-0.5 0.5h-3.2c-0.3 0-0.5-0.2-0.5-0.5v-1.5c0-0.3 0.2-0.5 0.5-0.5h3.2c0.3 0 0.5 0.2 0.5 0.5z" />
	<path id="Layer" class="s0" d="m518.7 433.7c0 0.3-0.2 0.5-0.5 0.5h-3.2c-0.2 0-0.5-0.2-0.5-0.5v-1.5c0-0.3 0.3-0.5 0.5-0.5h3.2c0.3 0 0.5 0.2 0.5 0.5z" />
	<path id="Layer" class="s0" d="m510.4 433.7c0 0.3-0.3 0.5-0.5 0.5h-3.2c-0.3 0-0.5-0.2-0.5-0.5v-1.5c0-0.3 0.2-0.5 0.5-0.5h3.2c0.2 0 0.5 0.2 0.5 0.5z" />
	<path id="Layer" class="s0" d="m502 433.7c0 0.3-0.2 0.5-0.5 0.5h-3.2c-0.3 0-0.5-0.2-0.5-0.5v-1.5c0-0.3 0.2-0.5 0.5-0.5h3.2c0.3 0 0.5 0.2 0.5 0.5z" />
	<path id="Layer" class="s0" d="m627.7 437.9c0 0.3-0.2 0.5-0.5 0.5h-3.2c-0.2 0-0.5-0.2-0.5-0.5v-1.5c0-0.3 0.3-0.5 0.5-0.5h3.2c0.3 0 0.5 0.2 0.5 0.5z" />
	<path id="Layer" class="s0" d="m619.4 437.9c0 0.3-0.3 0.5-0.5 0.5h-3.2c-0.3 0-0.5-0.2-0.5-0.5v-1.5c0-0.3 0.2-0.5 0.5-0.5h3.2c0.2 0 0.5 0.2 0.5 0.5z" />
	<path id="Layer" class="s0" d="m611 437.9c0 0.3-0.2 0.5-0.5 0.5h-3.2c-0.3 0-0.5-0.2-0.5-0.5v-1.5c0-0.3 0.2-0.5 0.5-0.5h3.2c0.3 0 0.5 0.2 0.5 0.5z" />
	<path id="Layer" class="s0" d="m602.6 437.9c0 0.3-0.2 0.5-0.5 0.5h-3.2c-0.3 0-0.5-0.2-0.5-0.5v-1.5c0-0.3 0.2-0.5 0.5-0.5h3.2c0.3 0 0.5 0.2 0.5 0.5z" />
	<path id="Layer" class="s0" d="m594.2 437.9c0 0.3-0.2 0.5-0.5 0.5h-3.2c-0.2 0-0.5-0.2-0.5-0.5v-1.5c0-0.3 0.3-0.5 0.5-0.5h3.2c0.3 0 0.5 0.2 0.5 0.5z" />
	<path id="Layer" class="s0" d="m585.8 437.9c0 0.3-0.2 0.5-0.4 0.5h-3.3c-0.2 0-0.4-0.2-0.4-0.5v-1.5c0-0.3 0.2-0.5 0.4-0.5h3.3c0.2 0 0.4 0.2 0.4 0.5z" />
	<path id="Layer" class="s0" d="m577.5 437.9c0 0.3-0.2 0.5-0.5 0.5h-3.2c-0.3 0-0.5-0.2-0.5-0.5v-1.5c0-0.3 0.2-0.5 0.5-0.5h3.2c0.3 0 0.5 0.2 0.5 0.5z" />
	<path id="Layer" class="s0" d="m569.1 437.9c0 0.3-0.2 0.5-0.5 0.5h-3.2c-0.3 0-0.5-0.2-0.5-0.5v-1.5c0-0.3 0.2-0.5 0.5-0.5h3.2c0.3 0 0.5 0.2 0.5 0.5z" />
	<path id="Layer" class="s0" d="m560.7 437.9c0 0.3-0.2 0.5-0.5 0.5h-3.2c-0.3 0-0.5-0.2-0.5-0.5v-1.5c0-0.3 0.2-0.5 0.5-0.5h3.2c0.3 0 0.5 0.2 0.5 0.5z" />
	<path id="Layer" class="s0" d="m552.3 437.9c0 0.3-0.2 0.5-0.4 0.5h-3.3c-0.2 0-0.5-0.2-0.5-0.5v-1.5c0-0.3 0.3-0.5 0.5-0.5h3.3c0.2 0 0.4 0.2 0.4 0.5z" />
	<path id="Layer" class="s0" d="m544 437.9c0 0.3-0.3 0.5-0.5 0.5h-3.2c-0.3 0-0.5-0.2-0.5-0.5v-1.5c0-0.3 0.2-0.5 0.5-0.5h3.2c0.2 0 0.5 0.2 0.5 0.5z" />
	<path id="Layer" class="s0" d="m535.6 437.9c0 0.3-0.2 0.5-0.5 0.5h-3.2c-0.3 0-0.5-0.2-0.5-0.5v-1.5c0-0.3 0.2-0.5 0.5-0.5h3.2c0.3 0 0.5 0.2 0.5 0.5z" />
	<path id="Layer" class="s0" d="m527.2 437.9c0 0.3-0.2 0.5-0.5 0.5h-3.2c-0.3 0-0.5-0.2-0.5-0.5v-1.5c0-0.3 0.2-0.5 0.5-0.5h3.2c0.3 0 0.5 0.2 0.5 0.5z" />
	<path id="Layer" class="s0" d="m518.8 437.9c0 0.3-0.2 0.5-0.5 0.5h-3.2c-0.2 0-0.5-0.2-0.5-0.5v-1.5c0-0.3 0.3-0.5 0.5-0.5h3.2c0.3 0 0.5 0.2 0.5 0.5z" />
	<path id="Layer" class="s0" d="m510.5 437.9c0 0.3-0.3 0.5-0.5 0.5h-3.2c-0.3 0-0.5-0.2-0.5-0.5v-1.5c0-0.3 0.2-0.5 0.5-0.5h3.2c0.2 0 0.5 0.2 0.5 0.5z" />
	<path id="Layer" class="s0" d="m502.1 437.9c0 0.3-0.2 0.5-0.5 0.5h-3.2c-0.3 0-0.5-0.2-0.5-0.5v-1.5c0-0.3 0.2-0.5 0.5-0.5h3.2c0.3 0 0.5 0.2 0.5 0.5z" />
	<path id="Layer" class="s0" d="m587.5 443c0 0.2-0.2 0.4-0.5 0.4h-32.5c-0.3 0-0.5-0.2-0.5-0.4v-1.6c0-0.2 0.2-0.5 0.5-0.5h32.5c0.3 0 0.5 0.3 0.5 0.5z" />
	<path id="Layer" class="s3" d="m515.6 360.3c0-0.9 0.7-1.6 1.6-1.6h2.8c0.9 0 1.6 0.7 1.6 1.6c0 0.9-0.7 1.6-1.6 1.6h-2.8c-0.9 0-1.6-0.7-1.6-1.6z" />
	<path id="Layer" class="s3" d="m548.2 360.3c0-0.9 0.7-1.6 1.5-1.6h2.9c0.8 0 1.5 0.7 1.5 1.6c0 0.9-0.7 1.6-1.5 1.6h-2.9c-0.8 0-1.5-0.7-1.5-1.6z" />
	<path id="Layer" class="s3" d="m557.4 360.3c0-0.9 0.7-1.6 1.5-1.6h2.9c0.8 0 1.5 0.7 1.5 1.6c0 0.9-0.7 1.6-1.5 1.6h-2.9c-0.8 0-1.5-0.7-1.5-1.6z" />
	<path id="Layer" class="s3" d="m524.5 360c0-0.8 0.7-1.5 1.5-1.5h17.7c0.9 0 1.6 0.7 1.6 1.5c0 0.9-0.7 1.6-1.6 1.6h-17.7c-0.8 0-1.5-0.7-1.5-1.6z" />
	<path id="Layer" class="s3" d="m567.8 360c0-0.8 0.7-1.5 1.6-1.5h17.7c0.8 0 1.5 0.7 1.5 1.5c0 0.9-0.7 1.6-1.5 1.6h-17.7c-0.9 0-1.6-0.7-1.6-1.6z" />
	<path id="Layer" class="s3" d="m524.3 367.3c0-0.8 0.7-1.5 1.6-1.5h2.8c0.9 0 1.6 0.7 1.6 1.5c0 0.9-0.7 1.6-1.6 1.6h-2.8c-0.9 0-1.6-0.7-1.6-1.6z" />
	<path id="Layer" class="s3" d="m556.8 367.3c0-0.8 0.7-1.5 1.6-1.5h2.8c0.9 0 1.6 0.7 1.6 1.5c0 0.9-0.7 1.6-1.6 1.6h-2.8c-0.9 0-1.6-0.7-1.6-1.6z" />
	<path id="Layer" class="s3" d="m566 367.3c0-0.8 0.7-1.5 1.6-1.5h2.8c0.9 0 1.6 0.7 1.6 1.5c0 0.9-0.7 1.6-1.6 1.6h-2.8c-0.9 0-1.6-0.7-1.6-1.6z" />
	<path id="Layer" class="s3" d="m533.2 367.1c0-0.9 0.6-1.6 1.5-1.6h17.7c0.8 0 1.5 0.7 1.5 1.6c0 0.8-0.7 1.5-1.5 1.5h-17.7c-0.9 0-1.5-0.7-1.5-1.5z" />
	<path id="Layer" class="s3" d="m576.5 367.1c0-0.9 0.7-1.6 1.6-1.6h17.6c0.9 0 1.6 0.7 1.6 1.6c0 0.8-0.7 1.5-1.6 1.5h-17.6c-0.9 0-1.6-0.7-1.6-1.5z" />
	<path id="Layer" class="s3" d="m533 374.4c0-0.9 0.7-1.6 1.5-1.6h2.9c0.8 0 1.5 0.7 1.5 1.6c0 0.9-0.7 1.6-1.5 1.6h-2.9c-0.8 0-1.5-0.7-1.5-1.6z" />
	<path id="Layer" class="s3" d="m565.5 374.4c0-0.9 0.7-1.6 1.6-1.6h2.8c0.9 0 1.6 0.7 1.6 1.6c0 0.9-0.7 1.6-1.6 1.6h-2.8c-0.9 0-1.6-0.7-1.6-1.6z" />
	<path id="Layer" class="s3" d="m574.7 374.4c0-0.9 0.7-1.6 1.6-1.6h2.8c0.9 0 1.6 0.7 1.6 1.6c0 0.9-0.7 1.6-1.6 1.6h-2.8c-0.9 0-1.6-0.7-1.6-1.6z" />
	<path id="Layer" class="s3" d="m541.8 374.1c0-0.8 0.7-1.5 1.6-1.5h17.7c0.8 0 1.5 0.7 1.5 1.5c0 0.9-0.7 1.6-1.5 1.6h-17.7c-0.9 0-1.6-0.7-1.6-1.6z" />
	<path id="Layer" class="s3" d="m585.2 374.1c0-0.8 0.7-1.5 1.5-1.5h17.7c0.9 0 1.6 0.7 1.6 1.5c0 0.9-0.7 1.6-1.6 1.6h-17.7c-0.8 0-1.5-0.7-1.5-1.6z" />
	<path id="Layer" class="s3" d="m541.6 381.4c0-0.8 0.7-1.5 1.6-1.5h2.9c0.8 0 1.5 0.7 1.5 1.5c0 0.9-0.7 1.6-1.5 1.6h-2.9c-0.9 0-1.6-0.7-1.6-1.6z" />
	<path id="Layer" class="s3" d="m574.2 381.4c0-0.8 0.7-1.5 1.5-1.5h2.9c0.8 0 1.5 0.7 1.5 1.5c0 0.9-0.7 1.6-1.5 1.6h-2.9c-0.8 0-1.5-0.7-1.5-1.6z" />
	<path id="Layer" class="s3" d="m583.4 381.4c0-0.8 0.7-1.5 1.5-1.5h2.9c0.9 0 1.6 0.7 1.6 1.5c0 0.9-0.7 1.6-1.6 1.6h-2.9c-0.8 0-1.5-0.7-1.5-1.6z" />
	<path id="Layer" class="s3" d="m550.5 381.2c0-0.9 0.7-1.6 1.6-1.6h17.6c0.9 0 1.6 0.7 1.6 1.6c0 0.8-0.7 1.5-1.6 1.5h-17.6c-0.9 0-1.6-0.7-1.6-1.5z" />
	<path id="Layer" class="s3" d="m548.2 409.5c0-0.9 0.7-1.6 1.5-1.6h2.9c0.8 0 1.5 0.7 1.5 1.6c0 0.8-0.7 1.5-1.5 1.5h-2.9c-0.8 0-1.5-0.7-1.5-1.5z" />
	<path id="Layer" class="s3" d="m557.4 409.5c0-0.9 0.7-1.6 1.5-1.6h2.9c0.8 0 1.5 0.7 1.5 1.6c0 0.8-0.7 1.5-1.5 1.5h-2.9c-0.8 0-1.5-0.7-1.5-1.5z" />
	<path id="Layer" class="s3" d="m567.8 409.7c0-0.8 0.7-1.5 1.6-1.5h17.7c0.8 0 1.5 0.7 1.5 1.5c0 0.9-0.7 1.6-1.5 1.6h-17.7c-0.9 0-1.6-0.7-1.6-1.6z" />
	<path id="Layer" class="s3" d="m515.6 409.5c0-0.9 0.7-1.6 1.6-1.6h2.8c0.9 0 1.6 0.7 1.6 1.6c0 0.8-0.7 1.5-1.6 1.5h-2.8c-0.9 0-1.6-0.7-1.6-1.5z" />
	<path id="Layer" class="s3" d="m524.5 409.7c0-0.8 0.7-1.5 1.5-1.5h17.7c0.9 0 1.6 0.7 1.6 1.5c0 0.9-0.7 1.6-1.6 1.6h-17.7c-0.8 0-1.5-0.7-1.5-1.6z" />
	<path id="Layer" class="s3" d="m524.3 402.4c0-0.9 0.7-1.5 1.6-1.5h2.8c0.9 0 1.6 0.6 1.6 1.5c0 0.9-0.7 1.6-1.6 1.6h-2.8c-0.9 0-1.6-0.7-1.6-1.6z" />
	<path id="Layer" class="s3" d="m556.8 402.4c0-0.9 0.7-1.5 1.6-1.5h2.8c0.9 0 1.6 0.6 1.6 1.5c0 0.9-0.7 1.6-1.6 1.6h-2.8c-0.9 0-1.6-0.7-1.6-1.6z" />
	<path id="Layer" class="s3" d="m566 402.4c0-0.9 0.7-1.5 1.6-1.5h2.8c0.9 0 1.6 0.6 1.6 1.5c0 0.9-0.7 1.6-1.6 1.6h-2.8c-0.9 0-1.6-0.7-1.6-1.6z" />
	<path id="Layer" class="s3" d="m533.2 402.7c0-0.9 0.6-1.6 1.5-1.6h17.7c0.8 0 1.5 0.7 1.5 1.6c0 0.8-0.7 1.5-1.5 1.5h-17.7c-0.9 0-1.5-0.7-1.5-1.5z" />
	<path id="Layer" class="s3" d="m533 395.4c0-0.9 0.7-1.6 1.5-1.6h2.9c0.8 0 1.5 0.7 1.5 1.6c0 0.8-0.7 1.5-1.5 1.5h-2.9c-0.8 0-1.5-0.7-1.5-1.5z" />
	<path id="Layer" class="s3" d="m565.5 395.4c0-0.9 0.7-1.6 1.6-1.6h2.8c0.9 0 1.6 0.7 1.6 1.6c0 0.8-0.7 1.5-1.6 1.5h-2.8c-0.9 0-1.6-0.7-1.6-1.5z" />
	<path id="Layer" class="s3" d="m574.7 395.4c0-0.9 0.7-1.6 1.6-1.6h2.8c0.9 0 1.6 0.7 1.6 1.6c0 0.8-0.7 1.5-1.6 1.5h-2.8c-0.9 0-1.6-0.7-1.6-1.5z" />
	<path id="Layer" class="s3" d="m541.8 395.6c0-0.8 0.7-1.5 1.6-1.5h17.7c0.8 0 1.5 0.7 1.5 1.5c0 0.9-0.7 1.6-1.5 1.6h-17.7c-0.9 0-1.6-0.7-1.6-1.6z" />
	<path id="Layer" class="s3" d="m541.6 388.3c0-0.8 0.7-1.5 1.6-1.5h2.9c0.8 0 1.5 0.7 1.5 1.5c0 0.9-0.7 1.6-1.5 1.6h-2.9c-0.9 0-1.6-0.7-1.6-1.6z" />
	<path id="Layer" class="s3" d="m574.2 388.3c0-0.8 0.7-1.5 1.5-1.5h2.9c0.8 0 1.5 0.7 1.5 1.5c0 0.9-0.7 1.6-1.5 1.6h-2.9c-0.8 0-1.5-0.7-1.5-1.6z" />
	<path id="Layer" class="s3" d="m583.4 388.3c0-0.8 0.7-1.5 1.5-1.5h2.9c0.9 0 1.6 0.7 1.6 1.5c0 0.9-0.7 1.6-1.6 1.6h-2.9c-0.8 0-1.5-0.7-1.5-1.6z" />
	<path id="Layer" class="s3" d="m550.5 388.6c0-0.9 0.7-1.6 1.6-1.6h17.6c0.9 0 1.6 0.7 1.6 1.6c0 0.8-0.7 1.5-1.6 1.5h-17.6c-0.9 0-1.6-0.7-1.6-1.5z" />
	<path id="Layer" class="s4" d="m504.9 490.5l-13.3-21.1l41.9-33.4l17.3-19.2c2.2-2.5 5.1-4.3 8.3-5.4c3.2-1 6.6-1.2 9.8-0.5c3.3 0.7 6.4 2.2 8.9 4.5c2.5 2.2 4.3 5.1 5.4 8.2c0.8 2.4 1.1 4.8 0.9 7.3c-0.2 2.5-0.8 4.9-1.9 7.1c-1 2.2-2.5 4.2-4.3 5.8c-1.9 1.7-4 3-6.3 3.8l-27.3 10.1z" />
	<path id="Layer" fill-rule="evenodd" class="s2" d="m192 336.2q0.2-0.7 0.7-1.2q0.5-0.5 1.1-0.7q0.7-0.3 1.4-0.3h64.9q0.1 0 0.2 0q0.2 0 0.3 0.1q0.1 0 0.3 0q0.1 0 0.2 0.1q0.5 0.1 1 0.5q0.4 0.3 0.8 0.7q0.3 0.5 0.5 1q0.1 0.5 0.1 1.1v102.5h-71.8v-102.5q0-0.7 0.3-1.3zm27.7 48.4c0 2 0.9 4 2.3 5.4c1.4 1.4 3.4 2.3 5.4 2.3c2 0 4-0.9 5.4-2.3c1.4-1.4 2.3-3.4 2.3-5.4v-11.9c0-2-0.9-3.9-2.3-5.4c-1.4-1.4-3.4-2.2-5.4-2.2c-2 0-4 0.8-5.4 2.2c-1.4 1.5-2.3 3.4-2.3 5.4z" />
	<path id="Layer" class="s0" d="m263.8 436.8v9.9q0 0.3-0.2 0.7q-0.1 0.3-0.4 0.6q-0.3 0.3-0.6 0.4q-0.4 0.2-0.8 0.2h-68.4q-0.4 0-0.7-0.2q-0.4-0.1-0.7-0.4q-0.2-0.3-0.4-0.6q-0.1-0.4-0.1-0.7v-9.9z" />
	<path id="Layer" class="s0" d="m79.4 179.5c0.4-1.1 1.1-2.1 1.9-2.9c0.8-0.8 1.8-1.5 2.9-1.9c1.1-0.5 2.3-0.7 3.5-0.7h277.5c1.1 0 2.3 0.2 3.4 0.7c1.1 0.4 2.1 1.1 2.9 1.9c0.9 0.8 1.5 1.8 2 2.9c0.4 1.1 0.7 2.3 0.7 3.5v187.2c0 1.2-0.3 2.4-0.7 3.5c-0.5 1.1-1.1 2-2 2.9c-0.8 0.8-1.8 1.5-2.9 1.9c-1.1 0.5-2.3 0.7-3.4 0.7h-277.5c-1.2 0-2.4-0.2-3.5-0.7c-1.1-0.4-2.1-1.1-2.9-1.9c-0.8-0.9-1.5-1.8-2-2.9c-0.4-1.1-0.6-2.3-0.6-3.5v-187.2c0-1.2 0.2-2.4 0.7-3.5z" />
	<path id="Layer" class="s3" d="m85.5 183.4q0.4-0.8 1.1-1.5q0.7-0.7 1.5-1.1q0.9-0.3 1.9-0.3h272.8q1 0 1.9 0.3q0.9 0.4 1.6 1.1q0.6 0.7 1 1.5q0.4 0.9 0.4 1.9v182.6q0 1-0.4 1.9q-0.4 0.8-1.1 1.5q-0.6 0.7-1.5 1.1q-0.9 0.3-1.9 0.3h-272.8q-1 0-1.9-0.3q-0.8-0.4-1.5-1.1q-0.7-0.7-1.1-1.5q-0.3-0.9-0.3-1.9v-182.6q0-1 0.3-1.9z" />
	<path id="Layer" class="s2" d="m135.5 447.4q-0.2-0.3-0.3-0.7q-0.1-0.3-0.1-0.6q0-0.3 0.1-0.7l2.5-11.9q0.1-0.4 0.3-0.7q0.1-0.4 0.4-0.7q0.2-0.2 0.5-0.5q0.3-0.2 0.7-0.3q0.1-0.1 0.2-0.1q0.2 0 0.3-0.1q0.1 0 0.3 0q0.1 0 0.2 0h157.3q0.2 0 0.3 0q0.2 0 0.3 0q0.1 0.1 0.3 0.1q0.1 0 0.2 0.1q0.4 0.1 0.7 0.3q0.3 0.3 0.5 0.5q0.3 0.3 0.4 0.7q0.2 0.3 0.3 0.7l2.5 11.9q0.1 0.7 0 1.3q-0.2 0.7-0.6 1.2q-0.4 0.5-1 0.8q-0.7 0.3-1.3 0.3h-162.4q-0.3 0-0.6 0q-0.4-0.1-0.7-0.3q-0.3-0.1-0.5-0.3q-0.3-0.2-0.5-0.5q-0.2-0.2-0.3-0.5z" />
	<path id="Layer" class="s0" d="m354 205.6h-255.3q-0.4 0-0.7-0.3q-0.3-0.3-0.3-0.7q0-0.4 0.3-0.7q0.3-0.3 0.7-0.3h255.3q0.4 0 0.7 0.3q0.3 0.3 0.3 0.7q0 0.4-0.3 0.7q-0.3 0.3-0.7 0.3z" />
	<path id="Layer" class="s0" d="m116.1 198.4c-3.3 0-6-2.7-6-6.1c0-3.3 2.7-6.1 6-6.1c3.2 0 5.9 2.8 5.9 6.1c0 3.4-2.7 6.1-5.9 6.1z" />
	<path id="Layer" class="s0" d="m136.6 198.4c-3.3 0-5.9-2.7-5.9-6.1c0-3.3 2.6-6.1 5.9-6.1c3.3 0 6 2.8 6 6.1c0 3.4-2.7 6.1-6 6.1z" />
	<path id="Layer" class="s0" d="m157.2 198.4c-3.3 0-6-2.7-6-6.1c0-3.3 2.7-6.1 6-6.1c3.3 0 5.9 2.8 5.9 6.1c0 3.4-2.6 6.1-5.9 6.1z" />
	<path id="Layer" class="s0" d="m342.4 188.1c0.2 0.2 0.3 0.5 0.3 0.8c0 0.2-0.1 0.5-0.3 0.7c-0.2 0.2-0.5 0.4-0.8 0.4h-14.6c-0.3 0-0.5-0.2-0.7-0.4c-0.3-0.2-0.4-0.5-0.4-0.7c0-0.3 0.1-0.6 0.4-0.8c0.2-0.2 0.4-0.3 0.7-0.3h14.6c0.3 0 0.6 0.1 0.8 0.3z" />
	<path id="Layer" class="s0" d="m342.4 192.2c0.2 0.2 0.3 0.5 0.3 0.8c0 0.3-0.1 0.6-0.3 0.8c-0.2 0.2-0.5 0.3-0.8 0.3h-14.6c-0.3 0-0.5-0.1-0.7-0.3c-0.3-0.2-0.4-0.5-0.4-0.8c0-0.3 0.1-0.6 0.4-0.8c0.2-0.2 0.4-0.3 0.7-0.3h14.6c0.3 0 0.6 0.1 0.8 0.3z" />
	<path id="Layer" class="s0" d="m342.4 196.4c0.2 0.2 0.3 0.5 0.3 0.8c0 0.2-0.1 0.5-0.3 0.7c-0.2 0.2-0.5 0.4-0.8 0.4h-14.6c-0.3 0-0.5-0.2-0.7-0.4c-0.3-0.2-0.4-0.5-0.4-0.7c0-0.3 0.1-0.6 0.4-0.8c0.2-0.2 0.4-0.3 0.7-0.3h14.6c0.3 0 0.6 0.1 0.8 0.3z" />
	<path id="Layer" fill-rule="evenodd" class="s2" d="m686.5 389.1q-0.4-1.3-0.3-2.7q0.2-1.4 0.9-2.6q0.7-1.1 1.8-1.9q1.1-0.8 2.5-1.1q0.1 0 0.2 0q0.2-0.1 0.3-0.1q0.1 0 0.2 0q0.2 0 0.3 0l40.7-1.1q0.7 0 1.4 0.2q0.7 0.1 1.3 0.4q0.6 0.2 1.2 0.6q0.6 0.4 1 0.9q0.2 0 0.4 0q0.3-0.1 0.5-0.1q0.2 0 0.4 0q0.2 0 0.5 0c2.5-0.1 5 0.9 6.9 2.6c1.8 1.8 2.9 4.2 3 6.8c0 2.5-0.9 5-2.7 6.9c-1.8 1.8-4.2 2.9-6.8 3q-0.5 0-1.1-0.1q-0.5 0-1-0.1q-0.6-0.1-1.1-0.3q-0.5-0.2-1-0.4l-3.7 40.1q-0.3 1-0.9 1.8q-0.6 0.9-1.4 1.5q-0.8 0.6-1.7 1q-1 0.3-2 0.4l-26.5 0.6q-1 0-2-0.2q-1-0.3-1.8-0.9q-0.8-0.6-1.5-1.4q-0.6-0.8-0.9-1.8zm51 8.6q0.5 0.1 0.9 0.3q0.4 0.1 0.9 0.1q0.4 0 0.8 0c1.9 0 3.6-0.8 4.9-2.1c1.2-1.3 1.9-3.1 1.9-4.9c-0.1-1.9-0.8-3.6-2.2-4.9c-1.3-1.2-3.1-1.9-4.9-1.9c-0.1 0-0.2 0.1-0.4 0.1q0.1 0.4 0.2 0.8q0.1 0.4 0.1 0.9q-0.1 0.4-0.1 0.8q-0.1 0.4-0.2 0.9l-2.6 9.5q0.3 0.2 0.7 0.4z" />
	<path id="Layer" class="s0" d="m691.6 380.8q0.2-0.1 0.3-0.1q0.1 0 0.2 0q0.2 0 0.3 0l40.7-1.1q0.3 0 0.5 0q0.2 0.1 0.5 0.1q0.2 0 0.4 0.1q0.3 0 0.5 0.1c-1.6 4.5-10.5 8.3-21.2 8.8c-11.8 0.6-21.5-2.9-22.4-7.9q0.1 0 0.2 0z" />
	<path id="Layer" class="s1" d="m715.6 419q-0.2 0-0.3-0.2q0-0.2 0-0.4q0.1-0.1 0.2-0.2l5.1-3.4l-5.3-3.5q-0.2-0.1-0.2-0.3q-0.1-0.2 0-0.4q0.2-0.1 0.4-0.2q0.2 0 0.3 0.1l6 3.9q0.1 0.1 0.2 0.2q0 0.1 0 0.2q0 0.1 0 0.3q-0.1 0.1-0.2 0.1l-5.7 3.8q-0.1 0-0.1 0q0 0 0 0q0 0.1-0.1 0.1q0 0 0 0q-0.2 0-0.3-0.1z" />
	<path id="Layer" class="s1" d="m706.7 419.5q0 0-0.1 0q0 0-0.1 0q0 0-0.1-0.1l-5.9-3.4q-0.1 0-0.2-0.1q-0.1-0.2-0.1-0.3q0-0.1 0.1-0.2q0-0.1 0.1-0.2l5.8-4.3q0.1-0.1 0.3-0.1q0.2 0.1 0.4 0.2q0.1 0.2 0.1 0.4q-0.1 0.2-0.2 0.3l-5.2 3.8l5.3 3.1q0.2 0.1 0.2 0.2q0.1 0.1 0.1 0.3q0 0.1-0.1 0.2q-0.1 0.2-0.3 0.2q0 0-0.1 0z" />
	<path id="Layer" class="s1" d="m715.2 422.4q-0.1 0-0.2 0q-0.1-0.1-0.1-0.1q-0.1-0.1-0.1-0.2l-8.2-13.4q-0.1-0.1 0-0.3q0-0.2 0.2-0.3q0.2-0.2 0.4-0.1q0.2 0 0.3 0.2l8.1 13.4q0.1 0.1 0.1 0.2q0 0.1 0 0.2q0 0.1-0.1 0.2q0 0.1-0.1 0.1q0 0-0.1 0q0 0 0 0q0 0.1 0 0.1q0 0-0.1 0q0 0-0.1 0z" />
	<path id="Layer" class="s1" d="m209.4 264.1c0-1.8 1.4-3.3 3.2-3.3h44.2c1.8 0 3.3 1.5 3.3 3.3v4.3c0 1.8-1.5 3.3-3.3 3.3h-44.2c-1.8 0-3.2-1.5-3.2-3.3z" />
	<path id="Layer" class="s5" d="m183.6 285.8c0-1.8 1.5-3.3 3.3-3.3h95.7c1.8 0 3.3 1.5 3.3 3.3v4.3c0 1.8-1.5 3.3-3.3 3.3h-95.7c-1.8 0-3.3-1.5-3.3-3.3z" />
	<path id="Layer" class="s5" d="m183.6 307.5c0-1.8 1.5-3.3 3.3-3.3h95.7c1.8 0 3.3 1.5 3.3 3.3v4.3c0 1.8-1.5 3.3-3.3 3.3h-95.7c-1.8 0-3.3-1.5-3.3-3.3z" />
	<path id="Layer" class="s0" d="m350.7 338.4l9.1-12.6q0.7-1 1.7-1.9q1-0.8 2.2-1.4q1.1-0.6 2.4-0.9q1.3-0.3 2.6-0.3l33.5 0.1q1.6 0 3.2 0.5q1.6 0.5 2.9 1.4q1.4 1 2.4 2.3q1 1.2 1.6 2.8l2.8 7l50.8 25.2l0.9 0.4l0.7 1.2l-9.6 60.8l-6.2 38.7c0 0 0.7 6.5 1.6 16.8q0.2 2.2 0.4 4.6c1.4 16.2 3.4 7.4 4.9 30.2c0.3 3.7-4.3 7.2-4.1 10.8c0.3 4.9 5.4 9.9 5.6 14.5c0.5 9.5 0.9 18.4 1 26q-6.9 1.6-13.9 3q-6.9 1.3-13.9 2.2q-7.1 1-14.1 1.6q-7.1 0.5-14.2 0.7q-3.8 0.2-7.7 0.2q-1.9 0-3.8-0.1q-0.6 0-1.2 0q-1.7 0-3.5-0.1q-8.5-0.2-17-1q-8.5-0.9-17-2.2q-8.4-1.4-16.8-3.3q-8.3-1.9-16.5-4.3q-0.5-0.1-0.9-0.3q-2.2-0.6-4.3-1.3q-10-3.1-19.6-7c4.4-5.7 9.8-11.7 14.4-17.6c8-10.3 9.5 7.7 9.5 7.7l-3.2-11.9l2.9-7.3l-1.1-53.7l-0.1-6.7l-14.1-42.9l-7.5-22.9l-6.6-19.8v-0.1l-0.2-0.7z" />
	<path id="Layer" class="s0" d="m326.8 453.7l-7.6 16.2l-5.1 11.1l-9 46.6l-4.4 4.8l-3.8-16.8l-40 8.9c-1.3-7.3-0.4 0.2-1.2-7.8q0.3-0.3 0.7-0.7c0.6-0.6 1.2-1.1 1.2-1.6c-0.5-27.6 0.9-74.6 12.3-103q0.7-1.8 1.5-3.4q0.7-1.7 1.6-3.4q0.9-1.6 1.9-3.2q1-1.6 2-3.1q0.4-0.5 0.7-0.9c5.3-7.4 8.6-14.7 13.3-19.9q0 0 0 0q0.1 0 0.1 0q0 0 0 0q0 0 0 0q0-0.1 0-0.1q0 0 0 0q0 0 0 0q0 0 0.1 0l32.4-17.2l1.4 39.1l1 28.1z" />
	<path id="Layer" class="s0" d="m465.9 360.6l0.9 0.4l0.7 1.2l12.1 19.8q0 0 0 0.1c5 5.4 8.4 13.1 14.1 20.8c17.9 24.4 19.9 83.6 19.4 116.1c-0.1 0.5 0.5 1.1 1.1 1.7c1.5 1.3 2.8 3 3.8 4.8c0.9 1.8 1.6 3.8 1.9 5.8c0.3 2.1 0.2 4.1-0.2 6.2c-0.4 2-1.2 3.9-2.2 5.7l-9.5-30.1l-32.4 6.7l-1.8 0.4l-3.9 16.8l-4.4-4.8l-8.9-46.6l-3.3-7.1l-9.5-20.2z" />
	<path id="a657ec4b-47ce-4d2a-9c58-81a811696ca9" class="s4" d="m386.4 311.8c-24.6 0-44.6-20-44.6-44.6c0-24.6 20-44.6 44.6-44.6c24.6 0 44.6 20 44.6 44.6c0 24.6-20 44.6-44.6 44.6z" />
	<path id="Layer" class="s2" d="m447.2 237q0.2 0.5 0.3 1q0.1 0.6 0 1.1q-0.2 0.5-0.4 1c-2.5 4.4-4.2 8.4-9 11.4q-0.8 0.4-1.6 0.8q-0.9 0.5-1.7 0.8q-0.8 0.4-1.7 0.7q-0.9 0.3-1.8 0.5q-0.7 0.2-1.5 0.4q0 0-0.1 0q-0.1 0.1-0.2 0.1q-0.1 0-0.1 0q-0.1 0-0.2 0.1c-17.4 4.4 8.7 27.2-10.1 24.3c0.9 3.7 1.8 7.7 1.3 11.7c-0.5 4-1.6 6.7-6.5 11.3q0 0.1-0.1 0.1c-1 1-2.2 2-3.5 3.2c-0.8 1.6-3.5 2.6-7.4 3.1l-0.4 2.6c-10.8 1.4-26.1 1.8-37.6-2.3c-6.4-2.3-15.3-9.1-14-12.2c0.5-1-0.8-2-2-2.7l0.2 0.4c-1.1-0.5-1.2-2.2-1.8-3c-7.7-11.1-11.4-25.8-11-43.7c0.2-7.6 1-17.4 6.3-25.1c4.5-6.5 13.6-11.7 22-9.1c-0.4-3.4 1.9-6.8 4.6-8.5c3.2-1.9 7-2.3 10.4-2.6c8.6-0.8 17.5-1.6 26.2 0c9.7 1.9 17.7 6.9 21.8 13.8l0.1 0.2l0.8 4.1q0.1 0.4 0.3 0.8q0.2 0.4 0.4 0.7q0.3 0.4 0.6 0.6q0.3 0.3 0.7 0.5q0.3 0.2 0.7 0.3q0.4 0.2 0.9 0.2q0.4 0 0.8 0q0.4-0.1 0.8-0.3q0.9-0.3 1.8-0.1q0.9 0.1 1.7 0.7q0.7 0.6 1 1.5q0.4 0.8 0.2 1.8l-0.2 1.6l2.4-0.5c0.7-0.1 1.3 0 1.9 0.2c0.6 0.2 1.1 0.5 1.5 1c0.4 0.5 0.7 1.1 0.8 1.7c0.1 0.6 0 1.2-0.2 1.8l-0.7 1.9q0.4 0 0.8 0.1q0.4 0.1 0.7 0.2q0.3 0.2 0.7 0.4q0.3 0.2 0.5 0.5q0.4 0.4 0.6 0.9z" />
	<path id="Layer" class="s2" d="m544 461.4c0 1.8 0 4.2-0.1 7.3q0 0.6 0 1.3c-0.2 5.5-0.3 10.2-0.5 15.4q0 0.5-0.1 1.1c-0.2 7.2-0.7 15.6-1.4 29c-1.4 24.6-3.9 3.4-6.4 12q-0.2 0.7-0.3 1.6q-0.2 0.8-0.4 1.6q-0.2 0.8-0.4 1.6q-0.2 0.8-0.5 1.5q-0.3 0.8-0.6 1.6c-1.3 0.8-2.7 1.5-4 2.3q-5.7 3.1-11.5 6q-3.3 1.7-6.6 3.2q-0.5 0.2-1 0.5q-4.3 1.9-8.5 3.7q-4.3 1.8-8.7 3.5q-4.3 1.7-8.7 3.2q-4.4 1.5-8.9 2.8q-3.5 1.1-7 2q-3.6 1.1-7.3 2q-6.9 1.6-13.9 3q-6.9 1.3-14 2.2q-7 1-14 1.6q-7.1 0.5-14.2 0.7q-3.8 0.2-7.7 0.2q-1.9 0-3.8-0.1q-0.6 0-1.2 0q-1.7 0-3.5-0.1q-8.5-0.2-17-1q-8.5-0.9-17-2.2q-8.4-1.4-16.8-3.3q-8.3-1.9-16.5-4.3l-0.9-0.3q-2.2-0.6-4.3-1.3q-9.9-3.1-19.6-7q-7.3-3-14.5-6.4q0 0 0 0q0 0 0 0q0 0-0.1 0q0 0 0 0q-1.5-0.7-3-1.4q-0.2-0.1-0.4-0.3q-5.6-2.7-11.1-5.7c-3-7-7.4-8.4-10-14.6q-0.3-0.7-0.6-1.4q-0.2-0.7-0.4-1.4q-0.3-0.7-0.4-1.4q-0.2-0.8-0.3-1.5q0 0 0-0.1c0.3 3.7-1.2-6.6 0 0q-0.1-0.2-0.1-0.4q0-0.6-0.1-1.4c-3.4-33.5-3.2-71.8-4.7-103.3q-0.1-3.1-0.3-5.9q-0.1-0.9-0.1-1.8q0.1-0.3 0.2-0.6q0 0 0 0q0 0 0.1 0q0-0.1 0-0.1q0 0 0 0q0 0 0-0.1q0 0 0 0q0.1 0 0.1 0q0-0.1 0-0.1q0 0 0.1-0.1q0 0 0 0q0 0 0 0q0-0.1 0-0.1q0 0 0 0q0.1-0.2 0.3-0.4q0.1-0.1 0.2-0.2q0 0 0 0q0 0 0-0.1q0 0 0 0q0.1 0 0.1 0q0 0 0-0.1q0 0 0 0q0 0 0.1 0q0 0 0-0.1q0 0 0.1-0.1q0 0 0 0q0 0 0 0q0.1 0 0.1-0.1q0 0 0 0q0 0 0.1 0q0-0.1 0-0.1q0 0 0.1-0.1q0 0 0.1 0q0.1-0.1 0.2-0.3q0.2-0.1 0.3-0.2q0.1-0.1 0.3-0.2q0.1-0.1 0.3-0.2q0.2-0.2 0.4-0.3q0.4-0.2 0.8-0.4q0.4-0.2 0.8-0.4q0.4-0.2 0.8-0.4q0.4-0.2 0.8-0.3q0.6-0.2 1.2-0.4q0.2-0.1 0.4-0.2q0.3-0.1 0.7-0.2q1.7-0.5 3.7-0.9q0.2 0 0.5-0.1q0.3 0 0.7-0.1q0.5-0.1 1.1-0.2q4.4-0.7 10-1q0.5-0.1 1.1-0.1q0.6 0 1.2 0q0.5-0.1 1.1-0.1q0.5 0 1.1 0q1.5-0.1 3.1-0.1q4.5-0.1 9.5 0q2.3 0.1 4.8 0.2q0.1 0 0.3 0q2.1 0.1 4.3 0.2q1.5 0 3 0.1q1.5 0.1 3 0.2q1.1 0.1 2.3 0.2q1 0.1 2 0.1l0.9 0.1q0.7 0 1.5 0.1q1.6 0.1 3.3 0.3q1.6 0.1 3.3 0.3q1.7 0.1 3.5 0.3q0.1 0 0.3 0q1.5 0.2 3.1 0.3q0.4 0.1 0.8 0.1q1.5 0.2 3 0.3q0.4 0.1 0.9 0.1q1.2 0.2 2.4 0.3c1 0.1 2.1 0.2 3.1 0.4q1.3 0.1 2.5 0.2q1.9 0.3 3.8 0.5q0.8 0.1 1.5 0.2q5.5 0.7 11.2 1.5q8.6 1.2 17.4 2.6q8.8 1.5 17.7 3.1q2.2 0.4 4.5 0.8q1 0.2 2 0.4q1.8 0.3 3.5 0.6q1.8 0.3 3.5 0.7q2.1 0.4 4.2 0.8c9 1.8 18.1 3.7 26.9 5.7q2.2 0.5 4.3 1q4.4 1 8.6 2.1q1.2 0.2 2.3 0.5q2.9 0.7 5.8 1.5l0.3 0.1q2.1 0.5 4.1 1q4.8 1.3 9.5 2.6q3.1 0.8 6.1 1.7q4.5 1.3 8.8 2.6q1.1 0.4 2.1 0.7q3.2 1 6.2 2q2.4 0.7 4.7 1.5q2.3 0.8 4.5 1.6q1.5 0.5 2.9 1.1q2 0.7 3.9 1.5q0.6 0.2 1.2 0.4q0.4 0.2 0.8 0.3q0.7 0.3 1.4 0.6q0.7 0.3 1.4 0.6q0.6 0.2 1.3 0.5q0.7 0.3 1.3 0.6q0.6 0.2 1.1 0.5q1.1 0.4 2.1 0.9q0.5 0.2 1 0.5l0.8 0.3q0.2 0.1 0.4 0.2q0.3 0.2 0.7 0.4q0.9 0.4 1.7 0.8q1.1 0.6 2.2 1.1q1.1 0.6 2.1 1.1q0.1 0.1 0.3 0.2q0.2 0.2 0.4 0.3q0.8 0.4 1.5 0.9q1.5 0.8 2.7 1.7q0.3 0.2 0.6 0.4q0.9 0.7 1.8 1.3q0 0 0 0q0.3 0.3 0.6 0.5q0.2 0.2 0.4 0.4q0.8 0.6 1.5 1.3q0 0 0.1 0.1q0 0 0.1 0.1q0 0 0.1 0.1q0 0.1 0.1 0.1q0 0 0 0.1q0 0 0.1 0q0 0 0 0q0 0.1 0 0.1q0.3 0.3 0.6 0.6q0 0 0 0q0 0 0 0q0 0 0 0q0 0.1 0.1 0.1q0.3 0.4 0.6 0.8q0.2 0.2 0.3 0.4q0.2 0.3 0.4 0.5q0.1 0.3 0.2 0.5q0.1 0.1 0.2 0.3q0 0.1 0.1 0.2q0.1 0.2 0.1 0.3q0.1 0.2 0.2 0.3q0 0.1 0 0.2q0.1 0.1 0.1 0.2q0 0.1 0.1 0.2q0 0.1 0 0.2q0.1 0.1 0.1 0.2q0 0.1 0 0.2q0 0.1 0.1 0.2q0 0.1 0 0.2z" />
	<path id="Layer" class="s6" d="m544 461.4c0 1.8 0 4.2-0.1 7.3q0 0.6-0.1 1.3c-0.1 4.2-0.2 9.5-0.4 15.4q0 0.5-0.1 1.1c-0.2 7.2-0.7 15.6-1.4 29c-1.4 24.6-3.9 3.4-6.4 12c-6.8-4.2-14.4-8.6-22.4-13.2q-2.2-1.2-4.4-2.4c-16.1-9-34-18.4-52.8-27.7q-1.1-0.6-2.2-1.1c-43-21.2-89.8-41.9-127.8-55.7c-7.3-2.6-14.3-5-20.9-7.1c-13.9-4.5-25.9-7.6-35.1-8.9c-9.6-1.4-16.2-0.9-18.9 2q-0.1-3.1-0.3-5.9q-0.1-0.9-0.1-1.8q0.1-0.3 0.2-0.5q0 0 0-0.1q0 0 0 0q0 0 0.1 0q0-0.1 0-0.1q0 0 0 0q0 0 0-0.1q0 0 0 0q0.1 0 0.1 0q0-0.1 0-0.1q0 0 0 0q0-0.1 0-0.1q0.1 0 0.1 0q0-0.1 0-0.1q0.1-0.2 0.3-0.4q0-0.1 0.1-0.1q0 0 0-0.1q0.1 0 0.1-0.1q0 0 0.1 0q0 0 0-0.1q0 0 0 0q0 0 0.1 0q0 0 0-0.1q0 0 0.1-0.1q0 0 0 0q0 0 0 0q0.1 0 0.1-0.1q0 0 0 0q0 0 0.1 0q0-0.1 0-0.1q0 0 0.1-0.1q0 0 0.1 0q0.1-0.1 0.2-0.3q0.2-0.1 0.3-0.2q0.1-0.1 0.3-0.2q0.1-0.1 0.3-0.2q0.2-0.2 0.4-0.3q0.4-0.2 0.8-0.4q0.4-0.2 0.8-0.4q0.4-0.2 0.8-0.4q0.4-0.2 0.8-0.3q0.6-0.2 1.2-0.4q0.2-0.1 0.4-0.2q0.3-0.1 0.7-0.2q1.7-0.5 3.7-0.9q0.6-0.1 1.2-0.2q0.5-0.1 1.1-0.2q4.4-0.7 10-1q0.5-0.1 1.1-0.1q0.6 0 1.2 0q0.5-0.1 1.1-0.1q0.5 0 1.1 0q1.5-0.1 3.1-0.1q4.5-0.1 9.5 0q2.3 0.1 4.8 0.2q0.1 0 0.3 0q2.1 0.1 4.3 0.2q1.5 0 3 0.1q1.5 0.1 3 0.2q1.1 0.1 2.3 0.2q1 0.1 2 0.1q1.2 0.1 2.4 0.2q1.6 0.1 3.3 0.3q1.6 0.1 3.3 0.3q1.7 0.1 3.5 0.3q0.1 0 0.3 0q1.5 0.2 3.1 0.3q8.8 0.9 18 2.1q5.5 0.7 11.2 1.5q8.6 1.2 17.4 2.6q8.8 1.5 17.7 3.1q2.2 0.4 4.5 0.8q2.8 0.5 5.5 1q1.8 0.3 3.5 0.7q2.1 0.4 4.2 0.8c9 1.8 18.1 3.7 26.9 5.7q2.2 0.5 4.3 1q4.4 1 8.6 2.1q1.2 0.3 2.3 0.5q2.9 0.8 5.8 1.5q0.1 0 0.3 0.1q2.1 0.5 4.1 1q4.8 1.3 9.5 2.6q3.1 0.8 6.1 1.7q4.5 1.3 8.8 2.6q1.1 0.4 2.1 0.7q3.2 1 6.2 2q2.4 0.7 4.7 1.5q2.3 0.8 4.5 1.6q1.5 0.5 2.9 1.1q2 0.7 3.9 1.5q0.6 0.2 1.2 0.4q1.1 0.4 2.2 0.9q0.7 0.3 1.4 0.6q0.6 0.2 1.3 0.5q0.7 0.3 1.3 0.6q0.6 0.2 1.1 0.5q1.1 0.4 2.1 0.9q0.5 0.2 1 0.5l0.8 0.3q0.2 0.1 0.4 0.2q1.2 0.6 2.4 1.2q1.1 0.6 2.2 1.1q1.2 0.7 2.4 1.3q0.2 0.2 0.4 0.3q0.8 0.4 1.5 0.9q1.5 0.8 2.7 1.7q1.3 0.9 2.4 1.7q0 0 0 0q0.5 0.5 1 0.9q0.8 0.6 1.5 1.3q0 0 0.1 0.1q0 0 0.1 0.1q0 0 0.1 0.1q0 0.1 0.1 0.1q0 0 0 0.1q0 0 0.1 0q0 0 0 0q0 0.1 0 0.1q0.3 0.3 0.7 0.7q0.3 0.4 0.6 0.8q0.2 0.2 0.3 0.4q0.2 0.3 0.4 0.5q0.1 0.3 0.2 0.5q0.1 0.1 0.2 0.3q0 0.1 0.1 0.2q0.1 0.2 0.1 0.3q0.1 0.2 0.2 0.3q0 0.1 0 0.2q0.1 0.1 0.1 0.2q0 0.1 0.1 0.2q0 0.1 0 0.2q0.1 0.1 0.1 0.2q0 0.1 0 0.2q0 0.1 0.1 0.2q0 0.1 0 0.2z" />
</svg>