<svg width="512" height="513" viewBox="0 0 512 513" fill="none" xmlns="http://www.w3.org/2000/svg">
<g clip-path="url(#clip0_3241_23526)">
<path d="M424.862 358.005C425.202 361.98 422.1 365.398 418.149 365.398H93.2747C89.3347 365.398 86.2352 361.997 86.5603 358.029L109.842 73.8777C110.132 70.348 113.051 67.6318 116.558 67.6318H393.898C397.395 67.6318 400.311 70.3344 400.61 73.8539L424.862 358.005Z" fill="#00875f"/>
<path d="M450.796 432.14C451.202 437.099 447.327 441.351 442.404 441.351H69.8625C64.9488 441.351 61.0779 437.12 61.467 432.169L88.2118 91.7949C88.5605 87.3683 92.2142 83.9595 96.6074 83.9595H414.544C418.927 83.9595 422.577 87.3547 422.938 91.7677L450.796 432.14Z" fill="url(#paint0_linear_3241_23526)"/>
<path d="M248.797 333.413C200.307 333.413 160.859 285.558 160.859 226.736C160.859 223.673 163.317 221.188 166.35 221.188C169.384 221.188 171.842 223.671 171.842 226.736C171.842 279.44 206.364 322.317 248.798 322.317C291.233 322.317 325.755 279.44 325.755 226.736C325.755 223.673 328.213 221.188 331.246 221.188C334.28 221.188 336.738 223.671 336.738 226.736C336.736 285.558 297.287 333.413 248.797 333.413Z" fill="white"/>
<path d="M302.927 225.248C301.522 225.248 300.117 224.706 299.044 223.622C296.9 221.456 296.9 217.943 299.044 215.777L327.502 187.025C328.532 185.985 329.928 185.4 331.385 185.4C332.842 185.4 334.239 185.984 335.268 187.025L363.448 215.498C365.592 217.664 365.592 221.177 363.448 223.343C361.304 225.508 357.827 225.51 355.682 223.343L331.384 198.795L306.81 223.622C305.737 224.706 304.332 225.248 302.927 225.248Z" fill="white"/>
</g>
<defs>
<linearGradient id="paint0_linear_3241_23526" x1="373.053" y1="391.334" x2="143.776" y2="123.684" gradientUnits="userSpaceOnUse">
<stop stop-color="#00b37e"/>
<stop offset="1" stop-color="#00b37e"/>
</linearGradient>
<clipPath id="clip0_3241_23526">
<rect width="389.12" height="376.832" fill="white" transform="translate(61.44 67.6318)"/>
</clipPath>
</defs>
</svg>
