<svg xmlns="http://www.w3.org/2000/svg" viewBox="0 0 25 25" preserveAspectRatio="xMinYMid" width="2500" height="2500"><path fill="#A0CEC7" d="M23 3.4C23 1.7 18.4.2 12.7.2S2.2 1.8 2.2 3.5c0 .2.1.5.2.6l-.5-.5v18h.4C8.4 11.3 22.7 4.5 22.7 4.5c-.2.1-.4.1-.5.2.4-.4.8-.9.8-1.3z"/><path fill="#222" d="M23.4 3.6c.1-2.1-5-3.6-10.9-3.6S1.6 1.4 1.6 3.6v18s0-2 0 0S6.8 25 12.5 25s10.9-1.3 10.9-3.4v-18zM12.5.6c6.1 0 10.2 1.5 10.2 2.9 0 1.5-4.1 2.9-10.2 2.9S2.3 5 2.3 3.6s4.1-3 10.2-3zm10.2 21c-.3 1.4-4.4 2.7-10.2 2.7s-9.9-1.4-10.2-2.7v-5.4c1.2 1.5 5.2 2.5 10.2 2.5 4.9 0 9-1 10.2-2.4v5.3zm0-6.1c-.4 1.4-4.4 2.7-10.2 2.7s-9.9-1.4-10.2-2.7v.1-5C3.5 12.1 7.5 13 12.5 13c4.9 0 9-1 10.2-2.4v4.9zm0-5.7c-.4 1.4-4.4 2.7-10.2 2.7S2.6 11.1 2.3 9.8v.2-5.4c1.2 1.3 5.3 2.5 10.2 2.5s9-1 10.2-2.4v5.1z"/><ellipse fill="none" stroke="#222" stroke-width=".497" stroke-miterlimit="10" cx="20.1" cy="8.7" rx=".9" ry=".9"/><ellipse fill="none" stroke="#222" stroke-width=".497" stroke-miterlimit="10" cx="20.1" cy="14.7" rx=".9" ry=".9"/><ellipse fill="none" stroke="#222" stroke-width=".497" stroke-miterlimit="10" cx="20.1" cy="20.7" rx=".9" ry=".9"/></svg>