<svg height="2500" viewBox="0 0 640 640" width="2500" xmlns="http://www.w3.org/2000/svg"><path d="m0 0h640v640h-640z" fill="#017acb"/><path d="m307.3 237h30.7v53h-83v235.8l-2.2.6c-3 .8-42.5.8-51-.1l-6.8-.6v-235.7h-83v-53l26.3-.3c14.4-.2 51.4-.2 82.2 0s69.8.3 86.8.3zm234.3 263.8c-12.2 12.9-25.3 20.1-47.1 26-9.5 2.6-11.1 2.7-32.5 2.6s-23.1-.1-33.5-2.8c-26.9-6.9-48.6-20.4-63.4-39.5-4.2-5.4-11.1-16.6-11.1-18 0-.4 1-1.3 2.3-1.9s4-2.3 6.2-3.6 6.2-3.7 8.9-5.1 10.5-6 17.3-10.1 13-7.4 13.7-7.4 2 1.4 3 3.1c6 10.1 20 23 29.9 27.4 6.1 2.6 19.6 5.5 26.1 5.5 6 0 17-2.6 22.9-5.3 6.3-2.9 9.5-5.8 13.3-11.6 2.6-4.1 2.9-5.2 2.8-13 0-7.2-.4-9.2-2.4-12.5-5.6-9.2-13.2-14-44-27.6-31.8-14.1-46.1-22.5-57.7-33.8-8.6-8.4-10.3-10.7-15.7-21.2-7-13.5-7.9-17.9-8-38-.1-14.1.2-18.7 1.7-23.5 2.1-7.2 8.9-21.1 12-24.6 6.4-7.5 8.7-9.8 13.2-13.5 13.6-11.2 34.8-18.6 55.1-19.3 2.3 0 9.9.4 17 .9 20.4 1.7 34.3 6.7 47.7 17.4 10.1 8 25.4 26.8 23.9 29.3-1 1.5-40.9 28.1-43.5 28.9-1.6.5-2.7-.1-4.9-2.7-13.6-16.3-19.1-19.8-32.3-20.6-9.4-.6-14.4.5-20.7 4.7-6.6 4.4-9.8 11.1-9.8 20.4.1 13.6 5.3 20 24.5 29.5 12.4 6.1 23 11.1 23.8 11.1 1.2 0 26.9 12.8 33.6 16.8 31.2 18.3 43.9 37.1 47.2 69.5 2.4 24.4-4.5 46.7-19.5 62.5z" fill="#fff"/></svg>