<?xml version="1.0" encoding="UTF-8"?>
<svg width="267px" height="24px" viewBox="0 0 267 24" version="1.1" xmlns="http://www.w3.org/2000/svg" xmlns:xlink="http://www.w3.org/1999/xlink">
    <!-- Generator: Sketch 61.2 (89653) - https://sketch.com -->
    <title>escola_virtual_horizontal_vermelho</title>
    <desc>Created with Sketch.</desc>
    <g id="Symbols" stroke="none" stroke-width="1" fill="none" fill-rule="evenodd">
        <g id="header_off" transform="translate(-16.000000, -12.000000)" fill="#FFFFFF" fill-rule="nonzero">
            <g id="Group">
                <g id="Group-2" transform="translate(16.000000, 9.000000)">
                    <g id="escola_virtual_horizontal_vermelho" transform="translate(0.000000, 3.000000)">
                        <g id="escola_virtual_horizontal_preto">
                            <path d="M28.5005004,9.37043478 C28.8673918,9.36431856 29.2336108,9.40358248 29.590556,9.48730435 C29.6225709,9.30744032 29.6388893,9.12521057 29.6393328,8.9426087 C29.6396539,8.76550509 29.6233254,8.58875199 29.590556,8.4146087 C29.1842975,8.31779202 28.7679268,8.26806294 28.3499285,8.26643478 C26.5918427,8.26643478 25.2366958,9.25565217 25.2366958,11.4782609 L25.2366958,19.9826087 C25.4575623,20.024802 25.6818685,20.0471548 25.9068467,20.0493913 C26.1478686,20.0451939 26.3882117,20.0228679 26.6257744,19.9826087 L26.6257744,13.0288696 L29.5947975,13.0288696 C29.6267363,12.8384686 29.6430479,12.6458465 29.6435789,12.4528696 C29.6438953,12.275766 29.6275668,12.0990129 29.5947975,11.9248696 L26.6257744,11.9248696 L26.6257744,11.4135652 C26.6257744,9.99652174 27.2959253,9.37043478 28.5005004,9.37043478 Z" id="Path"></path>
                            <path d="M36.4044639,11.9248696 L36.4044639,18.7972174 C35.8489144,18.9289848 35.2793354,18.9948445 34.7078793,18.9933913 C33.1491422,18.9933913 32.3305401,18.1586087 32.3305401,16.3742609 L32.3305401,11.9248696 C32.1096567,11.8827896 31.885361,11.8604379 31.6603892,11.858087 C31.4185695,11.8605547 31.1773818,11.8828932 30.9393407,11.9248696 L30.9393407,16.4243478 C30.9393407,18.861913 32.2457109,20.0973913 34.62305,20.0973913 C35.6994427,20.0823577 36.7690854,19.9272735 37.8041461,19.6361739 L37.8041461,11.9248696 C37.578267,11.8827409 37.3490385,11.8603926 37.1191501,11.858087 C36.8794029,11.8598869 36.6402706,11.8822322 36.4044639,11.9248696 Z" id="Path"></path>
                            <path d="M42.9511597,11.7933913 C41.8635135,11.8070478 40.782474,11.9621302 39.7361319,12.2546087 L39.7361319,19.9763478 C39.9570153,20.0184278 40.181311,20.0407795 40.4062828,20.0431304 C40.6481024,20.0406627 40.8892902,20.0183242 41.1273312,19.9763478 L41.1273312,13.0893913 C41.6965677,12.9485299 42.2814978,12.8784185 42.8684512,12.8806957 C44.4420334,12.8806957 45.279722,13.7154783 45.279722,15.5165217 L45.279722,19.9826087 C45.5005885,20.024802 45.7248947,20.0471548 45.9498729,20.0493913 C46.1909848,20.046827 46.43146,20.0244887 46.6688006,19.9826087 L46.6688006,15.4852174 C46.6688006,13.0455652 45.3284988,11.7933913 42.9511597,11.7933913 Z" id="Path"></path>
                            <path d="M53.7350755,9.37043478 L53.7350755,11.9582609 C53.2488161,11.8445317 52.75035,11.7891721 52.2505639,11.7933913 C49.8223272,11.7933913 48.2211755,13.442087 48.2211755,16.077913 C48.2211755,18.7137391 49.7841541,20.114087 52.1699762,20.114087 C53.1799337,20.104001 54.1819416,19.9370768 55.1389992,19.6194783 L55.1389992,8.15165217 C54.7289944,8.30161241 54.3448868,8.51278022 54.0001668,8.77773913 C53.820289,8.92200738 53.7216894,9.1424579 53.7350755,9.37043478 L53.7350755,9.37043478 Z M53.7350755,18.7972174 C53.2383506,18.9324948 52.7256551,19.002666 52.2102701,19.005913 C50.5539793,19.005913 49.6166164,17.9186087 49.6166164,16.0841739 C49.6166164,13.9575652 50.6769817,12.9036522 52.3120651,12.9036522 C52.7916951,12.8969878 53.2701333,12.9524195 53.7350755,13.0685217 L53.7350755,18.7972174 Z" id="Shape"></path>
                            <path d="M59.5289118,11.7933812 C58.7969722,11.792196 58.0688353,11.8969699 57.3678872,12.1043478 C57.3342867,12.2727476 57.3179459,12.4440408 57.3191104,12.6156522 C57.3181657,12.8031542 57.3344914,12.9903547 57.3678872,13.1749565 C58.0544854,12.9849616 58.7648017,12.8908244 59.4780143,12.8953043 C60.8183161,12.8953043 61.5711755,13.5046957 61.5711755,14.8716522 L61.5711755,15.1846957 C61.0726785,15.1130186 60.569205,15.0802209 60.0654567,15.0866087 C57.9722955,15.0866087 56.699857,15.9923478 56.699857,17.5408696 C56.699857,19.3210435 58.0719698,20.112 59.9636616,20.112 C60.9498811,20.1059348 61.9304938,19.9654696 62.8775457,19.6946087 L62.8775457,15.0553043 C62.8775457,12.765913 61.5542097,11.7933812 59.5289118,11.7933812 Z M61.5711755,18.8786087 C61.0531609,18.9826301 60.5262518,19.0378361 59.9975933,19.0434783 C58.6912232,19.0434783 57.9871406,18.4987826 57.9871406,17.5116522 C57.9871406,16.4890435 58.7251549,16.077913 60.1651311,16.077913 C60.635287,16.067089 61.1055516,16.094311 61.5711755,16.1593043 L61.5711755,18.8786087 Z" id="Shape"></path>
                            <path d="M68.4020492,18.9766957 C66.6291183,18.9766957 65.8571724,17.8246957 65.8571724,15.9297391 C65.8571724,14.0347826 66.6439635,12.914087 68.3872041,12.914087 C68.9865448,12.9181532 69.5788342,13.0416819 70.1283241,13.2772174 C70.1606867,13.0917811 70.1770041,12.9039772 70.1771009,12.7158261 C70.1784799,12.5386777 70.1621423,12.3618257 70.1283241,12.1878261 C69.5004049,11.9167393 68.8204311,11.7821985 68.1348372,11.7933913 C65.8402065,11.7933913 64.4511279,13.4733913 64.4511279,15.9464348 C64.4511279,18.3193043 65.5899603,19.8678261 67.6831215,20.0806957 C67.885026,20.322784 67.9972112,20.625276 68.0012311,20.9384348 C68.0012311,21.4330435 67.6491898,21.746087 67.0977998,21.746087 C66.6878934,21.7465137 66.2825008,21.6618908 65.9080699,21.4977391 C65.8859422,21.6505219 65.8746045,21.8046305 65.8741382,21.9589565 C65.8751242,22.1084118 65.886461,22.2576272 65.9080699,22.4055652 C66.3361834,22.5877063 66.7990136,22.6773748 67.2653376,22.6685217 C68.2854091,22.6685217 69.0403892,22.1238261 69.0403892,21.1366957 C69.0320149,20.7527267 68.8964923,20.3819445 68.6544162,20.0806957 C69.2082188,20.058373 69.7531243,19.9359886 70.2619301,19.7196522 C70.2964567,19.5400925 70.3134997,19.3577013 70.312848,19.1749565 C70.3135217,18.9977388 70.2964735,18.8208848 70.2619301,18.6469565 C69.6647267,18.8571845 69.0362592,18.9686058 68.4020492,18.9766957 Z" id="Path"></path>
                            <path d="M74.1789198,11.7933835 C73.4476863,11.7923401 72.7202702,11.8971131 72.0200159,12.1043478 C71.9846049,12.272514 71.9675424,12.4439205 71.9691183,12.6156522 C71.9677968,12.8032627 71.9848413,12.9905623 72.0200159,13.1749565 C72.706557,12.98469 73.4169124,12.8905476 74.130143,12.8953043 C75.4683241,12.8953043 76.2233042,13.5046957 76.2233042,14.8716522 L76.2233042,15.1846957 C75.7241036,15.1129435 75.2199193,15.0801457 74.7154647,15.0866087 C72.6223034,15.0866087 71.349865,15.9923478 71.349865,17.5408696 C71.349865,19.3210435 72.7240985,20.112 74.6157903,20.112 C75.6019974,20.1057741 76.5825877,19.9653121 77.5296743,19.6946087 L77.5296743,15.0553043 C77.5296743,12.765913 76.2063384,11.7933835 74.1789198,11.7933835 Z M76.2233042,18.8786087 C75.7045729,18.9826242 75.1769607,19.0378295 74.6476013,19.0434783 C73.3433519,19.0434783 72.6392693,18.4987826 72.6392693,17.5116522 C72.6392693,16.4869565 73.3772836,16.0695652 74.815139,16.0695652 C75.2859995,16.058749 75.756968,16.0859708 76.2233042,16.1509565 L76.2233042,18.8786087 Z" id="Shape"></path>
                            <path d="M73.5427006,10.0633043 C73.8517405,10.0791702 74.1541798,10.157305 74.4312867,10.2928696 C74.7683927,10.464556 75.1399057,10.5607655 75.5192216,10.5746087 C75.9969556,10.5646846 76.4572832,10.3962817 76.8255917,10.0966957 C76.8459291,9.93813663 76.8572572,9.77858414 76.8595234,9.61878261 C76.8579079,9.46450121 76.8465756,9.31046672 76.8255917,9.15756522 C76.4511124,9.44420392 75.9934608,9.60577901 75.5192216,9.61878261 C75.1501398,9.60910219 74.7878953,9.51855743 74.4588562,9.35373913 C74.1737001,9.20537744 73.8585917,9.12126104 73.5363384,9.10747826 C73.0594058,9.12174754 72.6016381,9.29546105 72.2384512,9.6 C72.2038541,9.75135657 72.1867796,9.90608079 72.1875536,10.0612174 C72.184843,10.2164466 72.2019425,10.3713968 72.2384512,10.5224348 C72.6108441,10.2337969 73.0687623,10.0725975 73.5427006,10.0633043 Z" id="Path"></path>
                            <path d="M82.7191025,11.7933913 C80.4923352,11.7933913 79.1032566,13.3252174 79.1032566,15.9673043 C79.1032566,18.5718261 80.4753693,20.1203478 82.7084988,20.1203478 C84.9691978,20.1203478 86.3434313,18.5551304 86.3434313,15.9673043 C86.3370691,13.3085217 85.0137331,11.7933913 82.7191025,11.7933913 Z M82.7084988,19.010087 C81.2685226,19.010087 80.5156632,17.9227826 80.5156632,15.9610435 C80.5156632,13.968 81.3024543,12.8973913 82.7254647,12.8973913 C84.1824067,12.8973913 84.9352661,13.9408696 84.9352661,15.9610435 C84.9289039,17.9478261 84.1590786,19.010087 82.7084988,19.010087 Z" id="Shape"></path>
                            <path d="M94.7521287,11.0483478 C94.1253047,11.0401209 93.5040164,11.1646773 92.930421,11.4135652 L92.930421,7.13321739 C92.203536,7.38612675 91.5220721,7.75101807 90.9114853,8.21426087 C90.6322724,8.41424572 90.476923,8.74127282 90.5000635,9.08034783 L90.5000635,19.6486957 C91.1468864,19.917913 92.4596187,20.1495652 93.7150913,20.1495652 C96.8961875,20.1495652 98.711533,18.24 98.711533,15.4831304 C98.711533,12.7262609 97.4178872,11.0483478 94.7521287,11.0483478 Z M93.8508181,18.2024348 C93.5408299,18.2171319 93.2303909,18.1847523 92.930421,18.1064348 L92.930421,13.3064348 C93.3720993,13.1076925 93.8555516,13.0154036 94.3407069,13.0372174 C95.5558856,13.0372174 96.2027085,13.872 96.2027085,15.4267826 C96.2027085,17.0650435 95.4328832,18.2024348 93.8508181,18.2024348 Z" id="Shape"></path>
                            <path d="M104.904067,11.1255652 C103.746148,11.1255652 103.080238,11.568 102.454623,12.3589565 C102.400062,11.9719918 102.307737,11.5911012 102.178928,11.2215652 C101.851853,11.1456353 101.515886,11.1133458 101.180064,11.1255652 C100.850906,11.1226353 100.522395,11.1548233 100.200286,11.2215652 L100.200286,19.9575652 C100.600527,20.0334301 101.00805,20.0656247 101.415465,20.0535652 C101.822578,20.0560314 102.22915,20.0239541 102.630643,19.9575652 L102.630643,15.696 C102.630643,13.9993043 103.531954,13.0914783 104.751374,13.0914783 C105.019923,13.0849548 105.288592,13.0982092 105.555131,13.1311304 C105.694685,12.4968516 105.70765,11.8419288 105.593304,11.2027826 C105.366842,11.1539401 105.13589,11.1280658 104.904067,11.1255652 Z" id="Path"></path>
                            <path d="M120.26664,9.08034783 L120.26664,11.184 C119.850498,11.0833749 119.422587,11.0377562 118.994202,11.0483478 C116.309357,11.0483478 114.487649,12.8222609 114.487649,15.6563478 C114.487649,18.5488696 116.271183,20.1495652 119.053582,20.1495652 C120.28909,20.1640399 121.519028,19.9843895 122.696998,19.6173913 L122.696998,7.13321739 C121.966726,7.38440248 121.282199,7.74940018 120.669579,8.21426087 C120.393564,8.41612469 120.241567,8.74283169 120.26664,9.08034783 Z M120.26664,18.0667826 C119.929415,18.1643682 119.578899,18.2101248 119.227482,18.2024348 C117.619968,18.2024348 116.994353,17.1589565 116.994353,15.6563478 C116.994353,13.9867826 117.630572,12.957913 119.208396,12.957913 C119.566516,12.9524243 119.923591,12.9974021 120.268761,13.0914783 L120.26664,18.0667826 Z" id="Shape"></path>
                            <path d="M109.391533,11.0086957 C108.50662,10.9933922 107.623417,11.0908983 106.763948,11.2987826 C106.618688,11.9209383 106.618688,12.5674096 106.763948,13.1895652 C107.496929,13.010645 108.250475,12.9264583 109.00556,12.9391304 C110.258912,12.9391304 110.867562,13.442087 110.867562,14.4626087 L110.867562,14.5606957 C110.494313,14.5210435 110.044718,14.4834783 109.73085,14.4834783 C107.652534,14.4834783 105.868999,15.216 105.868999,17.181913 C105.868999,19.4003478 107.476513,20.1516522 109.809317,20.1516522 C110.959863,20.1396857 112.102657,19.9646707 113.202486,19.632 L113.202486,14.6337391 C113.191882,12.2441739 111.87915,11.0608696 109.391533,11.0086957 Z M110.861199,18.1836522 C110.517799,18.2416206 110.170405,18.2737138 109.822041,18.2796522 C108.704416,18.2796522 108.097887,17.952 108.097887,17.1798261 C108.097887,16.4076522 108.704416,16.1008696 109.822041,16.1008696 C110.193169,16.1008696 110.625798,16.1384348 110.861199,16.1572174 L110.861199,18.1836522 Z" id="Shape"></path>
                            <path d="M145.210675,18.1836522 C143.995496,18.1836522 143.19386,17.2382609 143.19386,15.5791304 C143.19386,13.9993043 143.830079,12.9766957 145.231882,12.9766957 C145.763453,12.9725972 146.290033,13.0777998 146.777895,13.2855652 C146.958357,12.681361 147.251008,12.1152868 147.641033,11.616 C146.801817,11.186491 145.863194,10.9800309 144.918014,11.0170435 C142.233169,11.0170435 140.676553,12.8953043 140.676553,15.5874783 C140.676553,18.384 142.262859,20.157913 145.007085,20.157913 C145.930862,20.1881336 146.847538,19.9893465 147.672844,19.5798261 C147.268954,19.0803718 146.956763,18.5153698 146.750326,17.9102609 C146.265917,18.1186907 145.73856,18.2123319 145.210675,18.1836522 L145.210675,18.1836522 Z" id="Path"></path>
                            <path d="M152.011859,11.0086957 C149.28672,11.0086957 147.757673,12.8410435 147.757673,15.6 C147.757673,18.3965217 149.365187,20.1516522 152.011859,20.1516522 C154.753963,20.1516522 156.28301,18.3589565 156.28301,15.6 C156.28301,12.8410435 154.753963,11.0086957 152.011859,11.0086957 Z M152.011859,18.2212174 C150.658832,18.2212174 150.247411,17.1422609 150.247411,15.597913 C150.247411,14.0953043 150.658832,12.9370435 152.011859,12.9370435 C153.403058,12.9370435 153.793272,14.0556522 153.793272,15.597913 C153.793272,17.2194783 153.343678,18.2212174 152.011859,18.2212174 Z" id="Shape"></path>
                            <path d="M128.30421,11.0086957 C125.678745,11.0086957 124.062748,12.7450435 124.062748,15.6375652 C124.062748,18.530087 125.759333,20.1495652 128.688062,20.1495652 C129.686926,20.1495652 130.764257,19.9763478 131.445012,19.6486957 C131.58073,19.0388792 131.58073,18.4073817 131.445012,17.7975652 C130.63391,18.0488188 129.790586,18.1851434 128.940429,18.2024348 C127.589523,18.2024348 126.647919,17.7015652 126.452812,16.2928696 L131.977315,16.2928696 C132.051894,15.8923403 132.084583,15.4853464 132.074869,15.0782609 C132.081231,12.4758261 130.592478,11.0086957 128.30421,11.0086957 Z M126.459174,14.5377391 C126.635195,13.4775652 127.282017,12.8410435 128.261795,12.8410435 C129.358213,12.8410435 129.788721,13.5735652 129.829015,14.5377391 L126.459174,14.5377391 Z" id="Shape"></path>
                            <path d="M137.648149,14.7693913 L136.668372,14.3645217 C136.100016,14.1328696 135.767061,13.9471304 135.767061,13.5735652 C135.767061,13.0142609 136.276037,12.8994783 136.941946,12.8994783 C137.721022,12.9000822 138.494979,13.0233805 139.234456,13.2646957 C139.35333,12.6728556 139.35333,12.0638401 139.234456,11.472 C138.647014,11.1631304 137.548475,11.0086957 136.589905,11.0086957 C134.708817,11.0086957 133.277323,12.0125217 133.277323,13.5130435 C133.277323,14.8612174 133.864766,15.5373913 135.510453,16.1926957 L136.276037,16.5015652 C136.999206,16.7937391 137.211279,16.9690435 137.211279,17.4302609 C137.211279,18.1252174 136.507196,18.24 135.919754,18.24 C135.006242,18.2296973 134.102513,18.0535279 133.253995,17.7203478 C133.095644,18.3367385 133.095644,18.982218 133.253995,19.5986087 C134.057752,20.016 135.162653,20.157913 136.309968,20.157913 C138.17197,20.157913 139.660744,19.1937391 139.660744,17.4573913 C139.664964,16.0236522 139.039349,15.3474783 137.648149,14.7693913 Z" id="Path"></path>
                            <path d="M10.0098491,4.45356522 C8.70066265,4.45825939 7.3941017,4.56924459 6.10346307,4.7853913 C7.51465247,3.01477765 9.6763879,1.98307553 11.9630421,1.98886957 C13.6683407,1.99398836 15.3219716,2.56534339 16.6562192,3.61043478 C16.8682923,3.78573913 17.0337093,3.80034783 17.1970056,3.64173913 C17.3603018,3.48313043 17.3454567,3.32452174 17.1651946,3.11791304 C15.2784495,0.899373807 12.3368166,-0.166877572 9.43848533,0.317218697 C6.54015402,0.801314965 4.12076592,2.76299545 3.08354249,5.46991304 C2.10445882,5.75975624 1.15851435,6.14861353 0.260849881,6.63026087 C0.0318109611,6.75756522 -0.0508975377,6.91617391 0.0318109611,7.10608696 C0.0711108425,7.19138769 0.143273977,7.25780325 0.232388267,7.29068891 C0.321502558,7.32357456 0.420249293,7.3202295 0.506854647,7.2813913 C1.23002383,7.07269565 1.96803813,6.89947826 2.73786338,6.74086957 C2.65324714,7.14886894 2.60991399,7.56411422 2.60849881,7.98052174 C2.57102072,10.7576397 3.9988981,13.3554456 6.38127879,14.8445217 C6.61243844,14.9885217 6.80542494,14.9885217 6.94115171,14.8132174 C7.00685056,14.7378309 7.03554418,14.6378307 7.01961567,14.5397624 C7.00368715,14.4416942 6.94474772,14.3554778 6.85844321,14.304 C5.39024569,12.976389 4.55613202,11.1030192 4.55957109,9.14086957 C4.55518158,8.19469505 4.75090233,7.25797273 5.13428912,6.39026087 C5.90623511,6.32765217 6.74392375,6.27965217 7.66220016,6.27965217 C13.6362986,6.27965217 18.6751549,8.21843478 18.6751549,10.7603478 C18.6751549,12.048 17.0167434,13.3356522 15.0571882,14.1913043 C14.5821446,14.4 14.5333678,14.5398261 14.5991104,14.7464348 C14.6648531,14.9530435 14.8769261,15.0010435 15.1229309,14.9217391 C18.5691183,13.8093913 21.1797379,11.9833043 21.1797379,9.77321739 C21.1691342,6.77217391 16.2447975,4.45356522 10.0098491,4.45356522 Z" id="Path"></path>
                            <path d="M12.4211199,13.0685217 L10.6524305,14.0702609 L10.6524305,20.0347826 L12.5441223,20.0347826 C12.7198094,20.0347826 12.8622319,19.8946283 12.8622319,19.7217391 L12.8622319,13.293913 C12.8655321,13.1896481 12.8077929,13.0927551 12.713715,13.044685 C12.6196372,12.9966148 12.5058843,13.0058819 12.4211199,13.0685217 L12.4211199,13.0685217 Z" id="Path"></path>
                            <path d="M8.73528991,15.3892174 L8.73528991,19.8386087 C8.73528991,19.9538681 8.83023826,20.0473043 8.94736299,20.0473043 L10.1625417,20.0473043 L10.1625417,14.354087 L8.94948372,15.0386087 C8.81513654,15.1048212 8.73169885,15.2413984 8.73528991,15.3892174 L8.73528991,15.3892174 Z" id="Path"></path>
                            <rect id="Rectangle" x="164.312097" y="7.23547826" width="1" height="16.6017391"></rect>
                            <path d="M175.808578,11.7933913 C173.378221,11.7933913 171.72193,13.5443478 171.72193,15.8149565 C171.72193,18.0855652 173.363376,19.8365217 175.963392,19.8365217 C177.447903,19.8365217 178.612184,19.2438261 179.339595,18.2066087 L177.717236,17.2925217 C177.290871,17.798157 176.649657,18.0797166 175.982478,18.0542609 C174.922113,18.0542609 174.07382,17.6368696 173.800246,16.6226087 L179.636497,16.6226087 C179.686501,16.3561883 179.712053,16.0858819 179.712846,15.8149565 C179.714964,13.5756522 178.090485,11.7933913 175.808578,11.7933913 Z M173.78116,15.0991304 C174.01444,14.1245217 174.741851,13.5610435 175.808578,13.5610435 C176.745934,13.5324803 177.560854,14.1891817 177.717236,15.0991304 L173.78116,15.0991304 Z" id="Shape"></path>
                            <path d="M182.641573,14.1704348 C182.641573,13.7530435 183.044512,13.5443478 183.538642,13.5443478 C184.07471,13.5290601 184.565816,13.8377339 184.777149,14.3227826 L186.473733,13.4086957 C185.871446,12.3652174 184.777149,11.7933913 183.53228,11.7933913 C181.939611,11.7933913 180.590826,12.6615652 180.590826,14.2163478 C180.590826,16.896 184.586283,16.2866087 184.586283,17.3989565 C184.586283,17.8413913 184.162137,18.0542609 183.525917,18.0542609 C182.751851,18.0542609 182.225909,17.6890435 182.009595,17.0650435 L180.274837,18.0250435 C180.832589,19.197913 181.971422,19.8365217 183.525917,19.8365217 C185.182208,19.8365217 186.637029,19.0455652 186.637029,17.3989565 C186.634909,14.5961739 182.641573,15.2973913 182.641573,14.1704348 Z" id="Path"></path>
                            <path d="M191.480778,17.8873043 C190.920963,17.9010195 190.380361,17.6860272 189.987414,17.2934071 C189.594466,16.9007869 189.384248,16.3655843 189.406704,15.8149565 C189.406704,14.5961739 190.288928,13.728 191.480778,13.728 C192.220214,13.7028799 192.90779,14.1005601 193.245226,14.7485217 L194.965139,13.7593043 C194.265828,12.5272784 192.935859,11.7723006 191.501986,11.7933913 C190.409694,11.7674492 189.354212,12.1826037 188.58102,12.9422998 C187.807827,13.7019959 187.384313,14.7400213 187.408975,15.8149565 C187.4012,17.6272168 188.630467,19.2190082 190.406872,19.6969661 C192.183276,20.174924 194.064537,19.4200485 194.994829,17.856 L193.262192,16.8813913 C192.91795,17.5293141 192.222922,17.9217765 191.480778,17.8873043 L191.480778,17.8873043 Z" id="Path"></path>
                            <path d="M199.609539,11.7933913 C197.354496,11.8014525 195.532292,13.6055225 195.537736,15.8246603 C195.543204,18.043798 197.374259,19.8391696 199.629315,19.8364953 C201.884371,19.833815 203.711018,18.0341008 203.711033,15.8149565 C203.722574,14.7423871 203.293676,13.7106431 202.521541,12.9535558 C201.749407,12.1964686 200.699418,11.7781445 199.609539,11.7933913 L199.609539,11.7933913 Z M199.609539,17.9186087 C199.043841,17.9282232 198.499092,17.7081302 198.103462,17.3101135 C197.707831,16.9120968 197.49625,16.3712978 197.518499,15.8149565 C197.494157,15.0615326 197.888712,14.3548585 198.547996,13.9710612 C199.20728,13.587264 200.026644,13.587264 200.685928,13.9710612 C201.345211,14.3548585 201.739767,15.0615326 201.715425,15.8149565 C201.737232,16.3737148 201.52345,16.916507 201.124682,17.3148529 C200.725913,17.7131987 200.177603,17.9316898 199.609539,17.9186087 Z" id="Shape"></path>
                            <rect id="Rectangle" x="205.121319" y="8.50226087" width="1.99772836" height="11.1213913"></rect>
                            <path d="M214.830024,12.9057391 C214.272272,12.2191304 213.436704,11.7933913 212.306354,11.7933913 C210.247125,11.7933913 208.544178,13.5443478 208.544178,15.8149565 C208.544178,18.0855652 210.240763,19.8365217 212.306354,19.8365217 C213.436704,19.8365217 214.272272,19.4191304 214.830024,18.7241739 L214.830024,19.6173913 L216.825631,19.6173913 L216.825631,12.0062609 L214.830024,12.0062609 L214.830024,12.9057391 Z M212.677482,17.9624348 C211.45382,17.9624348 210.541906,17.0942609 210.541906,15.8149565 C210.541906,14.5356522 211.45382,13.6674783 212.677482,13.6674783 C213.901144,13.6674783 214.830024,14.5356522 214.830024,15.8149565 C214.830024,17.0942609 213.913868,17.9624348 212.675361,17.9624348 L212.677482,17.9624348 Z" id="Shape"></path>
                            <polygon id="Path" points="225.711493 17.3384348 223.836767 12.0062609 221.63969 12.0062609 224.581144 19.6236522 226.856688 19.6236522 229.798141 12.0062609 227.598944 12.0062609"></polygon>
                            <rect id="Rectangle" x="230.756712" y="12.0062609" width="1.99772836" height="7.6173913"></rect>
                            <path d="M231.747093,8.67130435 C231.07212,8.68594561 230.531119,9.22572448 230.525552,9.89008696 C230.525552,10.5585916 231.076252,11.1005217 231.755576,11.1005217 C232.434899,11.1005217 232.9856,10.5585916 232.9856,9.89008696 C232.978707,9.21980141 232.428226,8.67808685 231.747093,8.67130435 L231.747093,8.67130435 Z" id="Path"></path>
                            <path d="M236.578118,13.3168696 L236.578118,12.0062609 L234.580389,12.0062609 L234.580389,19.6173913 L236.578118,19.6173913 L236.578118,15.981913 C236.578118,14.3833043 237.892971,13.9262609 238.932129,14.0473043 L238.932129,11.853913 C237.956593,11.853913 236.981056,12.2817391 236.578118,13.3168696 Z" id="Path"></path>
                            <path d="M242.986966,9.8733913 L240.989237,10.4681739 L240.989237,12.0062609 L239.642573,12.0062609 L239.642573,13.8845217 L240.989237,13.8845217 L240.989237,17.0650435 C240.989237,19.1206957 241.935083,19.9283478 244.736569,19.6236522 L244.736569,17.8413913 C243.591374,17.901913 242.986966,17.8873043 242.986966,17.0650435 L242.986966,13.8949565 L244.732327,13.8949565 L244.732327,12.0166957 L242.982724,12.0166957 L242.986966,9.8733913 Z" id="Path"></path>
                            <path d="M251.378697,16.1196522 C251.378697,17.4448696 250.649166,18.0083478 249.682113,18.0083478 C248.782923,18.0083478 248.148824,17.4761739 248.148824,16.4389565 L248.148824,12.0062609 L246.151096,12.0062609 L246.151096,16.6831304 C246.151096,18.7095652 247.436259,19.8365217 249.077705,19.8365217 C250.114742,19.8365217 250.92062,19.4566957 251.38506,18.770087 L251.38506,19.6173913 L253.380667,19.6173913 L253.380667,12.0062609 L251.38506,12.0062609 L251.378697,16.1196522 Z" id="Path"></path>
                            <path d="M261.085282,12.9057391 C260.52753,12.2191304 259.691962,11.7933913 258.561612,11.7933913 C256.502383,11.7933913 254.799436,13.5443478 254.799436,15.8149565 C254.799436,18.0855652 256.496021,19.8365217 258.561612,19.8365217 C259.691962,19.8365217 260.52753,19.4191304 261.085282,18.7241739 L261.085282,19.6173913 L263.08089,19.6173913 L263.08089,12.0062609 L261.085282,12.0062609 L261.085282,12.9057391 Z M258.941223,17.9624348 C257.717562,17.9624348 256.805647,17.0942609 256.805647,15.8149565 C256.805647,14.5356522 257.717562,13.6674783 258.941223,13.6674783 C260.164885,13.6674783 261.093765,14.5356522 261.093765,15.8149565 C261.093765,17.0942609 260.171247,17.9624348 258.941223,17.9624348 Z" id="Shape"></path>
                            <rect id="Rectangle" x="264.891994" y="8.50226087" width="1.99772836" height="11.1213913"></rect>
                        </g>
                    </g>
                </g>
            </g>
        </g>
    </g>
</svg>