<svg fill="none" height="472" viewBox="-.039 -.01539148 180.039 34.06239148" width="2500" xmlns="http://www.w3.org/2000/svg"><path d="m37.504 9.983c-1.514 0-2.763 1.204-2.763 2.723v11.521h2.763v-11.52h6.589v-2.725h-3.293zm23.062 7.096v-4.399c0-1.492-1.222-2.723-2.763-2.723h-8.928c-1.514 0-2.763 1.204-2.763 2.723v8.798c0 1.492 1.222 2.723 2.763 2.723h8.928c1.514 0 2.763-1.205 2.763-2.723zm-2.763 0v4.399h-8.928v-8.798h8.928zm8.29-7.096c-1.515 0-2.763 1.204-2.763 2.723v8.798c0 1.492 1.222 2.723 2.763 2.723l9.724-.13v-2.593h-9.724v-8.798h9.724v-2.592zm25.562 0h-3.745l-5.473 5.734h-1.09v-5.734h-2.763v14.218h2.763v-5.76h1.593l5.686 5.76h3.8l-7.307-7.436zm4.116 11.495v-3.038l11.691-.13v-5.63c0-1.493-1.223-2.723-2.764-2.723h-8.927c-1.514 0-2.763 1.204-2.763 2.723v8.798c0 1.492 1.222 2.723 2.763 2.723l11.691-.131v-2.592zm0-8.798h8.927v3.037h-8.927zm18.625-6.86h-1.062l-1.701 2.069v2.068h-2.099v2.723l2.099-.026v8.824c0 1.493 1.222 2.723 2.763 2.723l4.464-.13v-2.593h-4.464v-8.85l4.863-.079v-2.592h-4.863zm19.423 12.62c0-1.492-1.222-2.723-2.763-2.723h-6.962v-3.037h9.725v-2.592l-9.725-.131c-1.514 0-2.763 1.204-2.763 2.723v3.037c0 1.493 1.222 2.723 2.763 2.723h6.962v3.038h-9.725v2.592l9.725.13c1.514 0 2.763-1.204 2.763-2.722zm14.427-8.457h-8.928c-1.514 0-2.763 1.204-2.763 2.723v8.798c0 1.492 1.222 2.723 2.763 2.723l11.691-.13v-2.593h-11.691v-3.037l11.691-.131v-5.63c0-1.519-1.222-2.723-2.763-2.723zm0 5.734h-8.928v-3.037h8.928zm17.217-5.734-11.691.13v2.593h11.691v3.037l-11.691.131v5.63c0 1.492 1.222 2.723 2.763 2.723h8.928c1.514 0 2.763-1.204 2.763-2.723v-8.798a2.759 2.759 0 0 0 -2.763-2.723zm0 11.495h-8.928v-3.038h8.928zm9.675-8.85 4.862-.079v-2.592h-4.862v-4.163h-1.063l-1.701 2.068v2.069h-2.099v2.723l2.099-.026v8.824c0 1.492 1.223 2.723 2.764 2.723l4.463-.131v-2.592h-4.463z" fill="#e1e1e6"/><path d="m27.435.662-4.49-.655a.389.389 0 0 0 -.32.079l-1.912 2.46a.593.593 0 0 0 -.107.55c.053.184-.106.341-.292.315l-1.568-.34a.657.657 0 0 0 -.664.235l-6.217 7.855c-.106.157-.319.21-.505.131l-2.365-1.047a.62.62 0 0 0 -.637.052l-1.196.812a.669.669 0 0 1 -.664.052l-.585-.288a.666.666 0 0 0 -.93.42l-.425 1.858c-.106.445.08.89.479 1.126l.903.55 2.896 1.754 1.408.864c.399.236.904.184 1.249-.104l2.365-2.043c.186-.157.478-.21.69-.078l.718.366a.61.61 0 0 0 .717-.104l1.196-1.1a.617.617 0 0 1 .69-.105l1.78.812c.266.13.585.052.771-.183l.824-1.048 6.244-7.881a.636.636 0 0 0 -.372-1.021l-1.382-.314c-.292-.053-.425-.42-.212-.629l2.152-2.644c.212-.315.08-.655-.24-.707zm-20.592 15.867c-.133-.079-.266.052-.213.183l.664 1.728c.054.131.054.262.027.393l-.585 2.252c-.026.157.027.314.133.393l1.674 1.283c.16.105.372.105.505-.026l1.754-1.52c.106-.078.239-.13.345-.156l1.993-.21c.133-.026.186-.21.053-.288zm-.585 5.813a.43.43 0 0 0 -.398-.052l-1.408.68c-.08.026-.133.105-.186.184l-3.003 7.305v.052c.027.026.053.053.107.053l.69-.262h.08c.027.026.053.078.027.104l-2.153 3.484c-.053.078.054.157.107.078l7.785-7.698a.496.496 0 0 0 .133-.261l.159-1.99a.43.43 0 0 0 -.133-.315z" fill="#8257e6"/></svg>