<?xml version="1.0" standalone="no"?>
<!DOCTYPE svg PUBLIC "-//W3C//DTD SVG 20010904//EN"
 "http://www.w3.org/TR/2001/REC-SVG-20010904/DTD/svg10.dtd">
<svg version="1.0" xmlns="http://www.w3.org/2000/svg"
 width="170.000000pt" height="50.000000pt" viewBox="0 0 170.000000 50.000000"
 preserveAspectRatio="xMidYMid meet">

<g transform="translate(0.000000,50.000000) scale(0.100000,-0.100000)"
fill="#ccc" stroke="none">
<path d="M118 443 c29 -2 74 -2 100 0 26 2 2 3 -53 3 -55 0 -76 -1 -47 -3z"/>
<path d="M418 443 c29 -2 74 -2 100 0 26 2 2 3 -53 3 -55 0 -76 -1 -47 -3z"/>
<path d="M344 426 c-3 -7 -4 -33 -2 -57 2 -34 8 -46 26 -54 20 -9 22 -17 22
-77 l0 -67 -82 -4 -83 -3 88 -2 87 -2 0 79 c0 75 -1 80 -22 83 -21 3 -23 8
-23 61 0 59 -2 67 -11 43z"/>
<path d="M572 383 c-2 -56 -4 -62 -24 -65 -22 -3 -23 -8 -25 -103 -4 -129 -7
-142 -46 -165 -17 -11 -26 -20 -19 -20 8 0 27 13 43 29 29 29 29 31 29 140 0
105 1 111 20 111 27 0 32 16 27 81 l-3 54 -2 -62z"/>
<path d="M72 378 c2 -36 7 -44 26 -46 21 -3 22 -7 22 -122 0 -116 1 -119 26
-139 24 -19 40 -21 171 -21 139 0 145 1 168 25 24 23 25 30 25 140 l0 115 25
0 c23 0 25 4 25 45 l0 45 -95 0 -95 0 0 -45 c0 -41 2 -45 25 -45 25 0 25 -1
25 -83 0 -51 -5 -88 -12 -95 -16 -16 -170 -16 -186 0 -7 7 -12 44 -12 95 0 82
0 83 25 83 23 0 25 4 25 45 l0 45 -96 0 -95 0 3 -42z"/>
<path d="M56 319 c3 -5 12 -9 20 -9 11 0 14 -19 15 -92 0 -51 5 -102 10 -113
8 -17 9 -17 4 5 -2 14 -5 66 -5 116 0 89 -1 92 -25 96 -13 3 -22 1 -19 -3z"/>
<path d="M253 323 c-13 -2 -23 -8 -23 -13 0 -10 38 -1 46 11 3 5 4 8 2 8 -2
-1 -13 -4 -25 -6z"/>
<path d="M700 238 c0 -29 3 -63 6 -75 12 -44 102 -50 118 -8 3 9 6 44 6 77 0
80 -24 76 -28 -5 -2 -42 -8 -59 -21 -66 -29 -16 -45 4 -51 65 -7 77 -30 86
-30 12z"/>
<path d="M897 272 c-21 -23 -25 -146 -4 -140 7 3 14 29 17 64 4 48 9 59 24 62
28 6 46 -25 46 -80 0 -36 4 -48 15 -48 25 0 21 114 -5 140 -25 25 -72 26 -93
2z"/>
<path d="M1070 270 c-14 -14 -20 -33 -20 -63 0 -53 25 -80 72 -80 41 0 68 33
68 84 0 48 -28 79 -70 79 -17 0 -39 -9 -50 -20z m78 -22 c17 -17 15 -64 -4
-82 -18 -19 -20 -19 -45 -6 -37 20 -20 100 21 100 9 0 21 -5 28 -12z"/>
<path d="M1230 173 c0 -94 3 -113 15 -113 11 0 15 11 15 36 0 32 3 36 21 31
57 -15 101 51 79 118 -13 38 -27 45 -87 43 l-43 -2 0 -113z m98 42 c3 -28 -1
-43 -14 -52 -28 -21 -54 1 -54 46 0 45 6 53 40 49 21 -3 25 -9 28 -43z"/>
<path d="M1414 275 c-20 -15 -18 -17 35 -19 44 -1 55 -26 12 -26 -30 0 -71
-29 -71 -51 0 -6 5 -19 10 -30 9 -16 20 -19 65 -17 l55 2 0 68 c0 56 -3 69
-19 78 -28 14 -64 12 -87 -5z m74 -87 c-3 -24 -28 -34 -56 -23 -15 6 -14 9 7
26 32 26 53 25 49 -3z"/>
<path d="M1582 278 c-18 -18 -16 -148 3 -148 10 0 15 16 17 63 3 57 5 62 26
61 15 0 22 5 22 18 0 21 -48 26 -68 6z"/>
<path d="M131 55 c15 -15 31 -26 37 -24 5 2 -7 14 -27 27 l-36 24 26 -27z"/>
</g>
</svg>
