<svg width="570" height="390" viewBox="0 0 570 390" fill="none" xmlns="http://www.w3.org/2000/svg">
<path d="M264.232 49.7262C264.552 49.6523 264.313 50.133 264.313 50.133C263.526 50.5021 249.667 55.2111 249.704 61.1632C249.717 63.2727 249.743 64.5954 251.647 66.1876C255.093 69.0694 261.189 68.3589 268.122 68.8285C275.977 69.3605 281.646 67.6196 289.376 68.3104C295.485 68.8563 300.589 68.5177 303.675 71.0981C306.047 73.0816 307.327 74.6902 305.832 77.4342C303.835 81.0989 299.198 83.1954 292.786 85.5042C287.983 87.234 284.011 88.0691 278.816 88.9563C252.074 93.5235 243.365 77.6372 216.849 83.4606C206.217 85.7955 198.154 86.7129 191.098 92.1868C185.155 96.7976 184.195 99.8249 185.491 104.366C186.89 109.268 193.441 110.184 199.717 113.308C207.644 117.254 216.028 117.243 222.742 121.797C226.611 124.421 229.66 125.807 230.487 129.416C231.059 131.91 230.417 133.521 229.185 136.226C226.486 142.155 213.193 151.877 213.193 151.877L211.578 150.788C211.578 150.788 224.252 142.281 227.007 136.444C228.203 133.911 228.911 132.391 228.394 130.053C227.605 126.489 224.167 125.276 220.263 122.73C213.447 118.285 205.417 118.13 197.665 114.155C191.272 110.878 184.692 109.83 183.315 104.751C182.057 100.112 183.607 96.4513 189.629 91.7485C196.666 86.2538 205.955 84.7105 217.493 82.24C244.047 76.5544 252.766 92.7259 279.46 87.7357C284.487 86.796 287.604 86.4973 292.191 84.7501C297.744 82.6349 301.979 80.8738 303.654 77.6519C304.84 75.3715 304.251 74.0052 302.571 72.2439C299.793 69.3308 294.522 69.3753 288.101 68.7582C281.084 68.084 275.899 69.7461 268.638 69.3895C261.159 69.0221 254.545 69.8846 250.839 66.8307C248.747 65.1069 248.783 63.6413 248.85 61.3342C249.025 55.326 261.83 50.6302 264.232 49.7262Z" fill="#DDDDDD"/>
<path d="M264.232 49.7262C263.921 49.8208 264.313 50.133 264.313 50.133C264.313 50.133 288.344 40.8661 299.555 43.7234C303.528 44.7361 306.011 45.3825 308.105 47.416C311.897 51.0963 307.647 54.8429 305.223 59.7117C302.477 65.2284 296.487 68.1981 294.101 73.7065C292.214 78.0598 289.139 81.3185 292.534 84.6141C295.144 87.1474 297.567 88.7707 303.457 89.0746C311.323 89.4803 317.492 87.3706 324.907 84.1735C330.463 81.7782 333.935 79.5139 338.088 76.4553C359.468 60.7103 333.657 47.3154 357.3 32.3188C366.779 26.3061 372.358 21.34 386.052 19.2172C397.587 17.4291 403.756 18.2266 411.704 21.2562C420.283 24.526 418.885 29.3514 421.781 35.0426C425.44 42.2323 421.42 47.8445 426.805 54.5105C429.908 58.3512 431.068 61.054 437.48 63.3258C441.911 64.8957 445.258 65.232 450.949 65.694C463.422 66.7066 488.107 62.4262 488.107 62.4262L486.822 60.8255C486.822 60.8255 464.725 65.2696 452.399 64.3384C447.05 63.9342 443.845 63.6853 439.682 62.2262C433.335 60.0016 432.687 57.121 429.748 53.2934C424.617 46.6114 428.156 41.1566 424.359 34.071C421.228 28.2283 422.393 23.3206 413.468 19.9806C405.318 16.9308 397.673 16.2268 385.926 18.0245C372.202 20.125 364.857 25.6142 354.69 32.1697C331.289 47.2567 357.633 60.7943 335.478 76.3062C331.306 79.2272 329.254 81.1738 323.769 83.4158C317.128 86.13 311.785 88.1298 304.907 87.7189C300.04 87.4281 297.743 86.3836 295.222 84.42C291.053 81.1723 293.653 77.6617 295.554 73.0651C297.632 68.0429 303.242 65.3594 306.035 60.3248C308.912 55.1383 313.696 51.1174 309.704 47.1807C307.451 44.9585 304.669 44.2852 300.285 43.2324C288.867 40.4908 266.261 49.1084 264.232 49.7262Z" fill="#DDDDDD"/>
<path d="M485.555 74.9701C485.555 74.9701 491.258 77.4666 492.34 86.287C492.63 88.8805 491.346 90.7963 489.508 92.6179C487.628 94.5578 484.843 94.5645 483.16 96.5493C484.323 94.6702 483.983 92.4335 485.972 90.934C483.003 91.8906 481.471 94.1977 481.074 97.2108C480.719 100.106 479.436 102.021 476.245 102.336C477.871 101.026 477.321 99.221 477.249 97.4289C477.074 99.5328 475.457 100.525 473.616 100.954C471.373 101.532 470.402 102.143 468.686 103.848C469.563 100.768 468.055 99.0977 471.793 97.6441C473.842 96.8623 476.108 95.4099 474.464 92.8605C473.909 97.3414 470.167 95.9306 467.147 97.3235C465.011 98.3417 465.445 100.024 464.249 101.624C463.054 103.224 460.978 103.487 459.108 103.478C462.234 102.605 461.451 99.0839 462.193 96.597C463.024 93.7146 466.821 93.0582 468.4 90.4739C466.988 88.1693 465.603 90.9576 465.021 91.8971C464.068 93.3441 462.838 94.7441 460.789 93.9744C465.604 92.4296 462.335 86.6152 465.816 84.3194C467.152 83.4394 470.538 84.8011 471.216 83.2275C472.273 80.8285 468.103 82.0719 467.212 82.6851C467.445 81.3783 468.473 80.0924 469.762 79.4896C471.414 78.6975 472.579 79.7623 474.019 79.4818C475.938 79.1342 476.12 76.7122 473.973 76.656C473.178 76.6352 471.512 77.9839 470.549 78.277C471.727 75.8413 474.611 73.5696 477.252 73.0022C480.533 72.2925 482.801 73.7841 485.555 74.9701Z" fill="url(#paint0_linear_402_2)"/>
<path d="M487.144 78.0527C487.717 78.697 487.676 78.7352 488.203 79.5724C489.329 81.3248 489.552 83.8606 487.866 85.3125C486.903 86.1145 485.771 85.8898 484.741 86.459C483.652 87.047 483.601 88.2455 483.021 89.1676C482.971 88.5096 482.974 87.9874 482.826 87.3477C482.765 86.9603 482.667 86.5338 482.817 86.1679C482.401 86.8597 482.329 87.6712 481.874 88.3626C481.297 89.2074 480.434 89.469 479.493 89.7684C478.533 90.0484 477.599 90.1545 476.554 90.1434C476.129 90.1389 475.572 90.0363 475.178 90.1869C474.666 90.4135 474.471 90.8949 474.07 91.2388C474.3 89.9068 474.386 89.2309 475.795 88.859C477.243 88.4876 477.315 87.2313 478.262 86.3324C477.447 86.8459 476.411 87.0864 475.856 86.0168C477.574 86.5765 478.286 85.3077 478.522 83.8211C478.775 82.3927 478.731 81.1352 479.895 80.1419C479.18 80.115 478.82 80.8654 478.376 81.2861C477.854 81.7447 477.265 81.9319 476.583 82.06C476.663 81.9835 476.783 81.9074 476.824 81.8305C477.096 81.3499 477.594 81.0264 477.865 80.5458C478.117 80.0844 478.271 79.6412 478.465 79.1598C478.854 78.197 479.857 77.3567 480.73 76.8244C482.181 75.9309 484.839 76.2298 486.566 77.5244L486.734 77.6616C486.884 77.7792 487.014 77.916 487.144 78.0527Z" fill="#FFC929"/>
<path d="M487.639 78.5779C488.259 79.3148 488.348 79.9125 488.327 80.8761C488.293 81.9521 487.302 82.7118 486.6 83.4187C486.771 83.0956 486.726 82.7763 486.765 82.4185C486.387 82.8378 486.031 82.6731 485.606 82.9165C485.159 83.1799 484.921 83.7266 484.505 84.0011C484.7 83.5352 484.177 83.0474 484.515 82.6269C484.06 82.7977 484.222 83.3668 483.908 83.6444C483.636 83.8823 483.039 83.9873 482.738 84.1525C482.771 84.0407 483.565 82.9262 482.963 83.2362C482.849 83.3045 482.747 83.7219 482.58 83.8605C482.434 83.9586 482.218 84.0238 482.042 84.0698C481.64 84.1703 481.232 84.0759 480.869 84.2597C480.454 84.4727 480.251 84.8666 480.037 85.2704C480.268 84.5286 480.125 84.0422 480.772 83.549C481.085 83.2918 481.213 83.07 481.435 82.7588C481.625 82.4979 481.874 82.3824 482.125 82.1439C481.33 81.935 481.178 82.8023 480.517 82.9873C480.893 82.691 480.78 82.2568 480.901 81.8604C481.033 81.4746 481.359 81.105 481.742 80.9423C482.021 80.8175 482.747 80.9319 482.706 80.469C482.666 79.9242 481.891 80.2186 481.661 80.3962C481.803 80.0005 482.13 79.6104 482.593 79.5117C482.995 79.4316 483.401 79.6491 483.595 79.1831C483.257 78.701 482.775 79.1787 482.314 79.1544C482.972 78.6308 483.273 77.5014 484.305 77.7071C484.58 77.7668 485.243 78.4024 485.284 77.9216C485.313 77.5327 484.622 77.245 484.324 77.2872C485.327 76.9176 486.758 77.5869 487.509 78.4406L487.639 78.5779Z" fill="#F9F079"/>
<path d="M481.949 67.7431C481.118 69.1379 480.345 70.487 479.621 71.7806C478.897 73.0741 481.592 77.3605 484.374 80.286C487.135 83.1881 492.297 87.1975 493.627 86.5417C494.958 85.8859 496.344 85.1843 497.781 84.4289L481.949 67.7431Z" fill="url(#paint1_linear_402_2)"/>
<path d="M522.72 70.215C539.674 59.349 556.669 44.9033 564.597 24.4326L545.366 4.16539C524.511 11.0102 509.19 27.2219 497.452 43.5852L486.181 60.7633C485.146 62.4529 484.155 64.0853 483.192 65.6848L499.903 83.296C501.549 82.4163 503.235 81.5135 504.974 80.5691L522.72 70.215ZM543.67 25.0344C545.854 27.4287 545.773 31.0985 543.454 33.299C541.137 35.4969 537.463 35.3911 535.187 33.0829C533.001 30.6886 533.089 27.0146 535.405 24.8167C537.724 22.6162 541.392 22.7262 543.67 25.0344Z" fill="url(#paint2_linear_402_2)"/>
<path d="M506.676 85.2058L504.974 80.5697L522.72 70.2156C522.085 73.5888 521.07 86.9916 521.07 86.9916L500.891 103.864L497.183 99.955L506.676 85.2058Z" fill="url(#paint3_linear_402_2)"/>
<path d="M480.613 44.3541C480.613 44.3541 494.048 44.0408 497.451 43.5856L486.181 60.7637L481.64 58.8211L466.413 67.5279L462.706 63.6202L480.613 44.3541Z" fill="url(#paint4_linear_402_2)"/>
<path d="M565.464 21.9728C567.642 15.4507 570.201 0.244267 569.988 0.0193301C569.773 -0.207371 554.498 1.59812 547.872 3.43183L565.464 21.9728Z" fill="url(#paint5_linear_402_2)"/>
<path d="M481.949 67.743L497.781 84.4289L499.903 83.296L483.192 65.6848L481.949 67.743Z" fill="url(#paint6_linear_402_2)"/>
<path d="M545.366 4.1658L564.597 24.433L565.465 21.9732L547.872 3.43227L545.366 4.1658Z" fill="url(#paint7_linear_402_2)"/>
<path d="M543.454 33.2988C545.773 31.0983 545.855 27.4285 543.67 25.0342C541.392 22.726 537.724 22.616 535.405 24.8165C533.089 27.0144 533.001 30.6884 535.187 33.0827C537.463 35.3909 541.137 35.4967 543.454 33.2988Z" fill="url(#paint8_linear_402_2)"/>
<path d="M77.9988 376.133V343.315H6.96819L0 325.557L51.0252 209.345H90.5865L46.08 310.272H77.9988V281.95L85.4166 261.495H116.886V310.272H131.946V337.246L116.886 343.315V376.133H77.9988Z" fill="#3E404E"/>
<g filter="url(#filter0_d_402_2)">
<path d="M275.522 264.504C294.614 308.151 274.708 359.01 231.062 378.101C187.415 397.192 136.556 377.287 117.465 333.64C98.3736 289.994 118.279 239.135 161.926 220.043C205.572 200.952 256.431 220.858 275.522 264.504Z" fill="url(#paint9_linear_402_2)"/>
<path d="M162.158 273.853C165.096 280.568 162.034 288.392 155.32 291.33C148.605 294.268 140.78 291.206 137.843 284.492C134.905 277.777 137.967 269.952 144.681 267.015C151.396 264.077 159.221 267.139 162.158 273.853Z" fill="url(#paint10_linear_402_2)"/>
<path d="M243.205 238.717C244.891 240.673 244.573 243.232 242.493 244.431C240.413 245.631 237.36 245.017 235.673 243.061C233.987 241.104 234.305 238.546 236.385 237.346C238.465 236.147 241.518 236.76 243.205 238.717Z" fill="url(#paint11_linear_402_2)"/>
<path d="M273.681 300.712C276.307 301.627 277.41 305.312 276.145 308.945C274.881 312.577 271.727 314.781 269.101 313.866C266.476 312.952 265.373 309.267 266.637 305.634C267.902 302.002 271.056 299.798 273.681 300.712Z" fill="url(#paint12_linear_402_2)"/>
<path d="M193.974 215.932C194.144 217.413 191.183 218.968 187.362 219.405C183.541 219.843 180.306 218.997 180.136 217.516C179.967 216.035 182.927 214.48 186.748 214.043C190.57 213.606 193.805 214.452 193.974 215.932Z" fill="url(#paint13_linear_402_2)"/>
<path d="M226.351 348.63C228.204 358.281 220.425 367.887 208.975 370.086C197.524 372.285 186.74 366.245 184.886 356.594C183.033 346.943 190.812 337.337 202.263 335.138C213.713 332.939 224.497 338.98 226.351 348.63Z" fill="url(#paint14_linear_402_2)"/>
<path d="M167.389 216.589C167.965 217.767 164.534 220.626 159.727 222.974C154.92 225.323 150.557 226.272 149.982 225.094C149.406 223.916 152.837 221.058 157.644 218.709C162.451 216.361 166.814 215.412 167.389 216.589Z" fill="#C00C14"/>
<path d="M168.145 218.137C169.138 220.169 166.046 223.72 161.239 226.069C156.432 228.418 151.73 228.674 150.737 226.642C149.744 224.609 152.836 221.058 157.643 218.71C162.45 216.361 167.152 216.105 168.145 218.137Z" fill="#C00C14"/>
<path d="M164.638 216.833C164.805 217.176 162.212 218.787 158.845 220.432C155.479 222.077 152.614 223.132 152.446 222.789C152.279 222.447 154.872 220.836 158.239 219.191C161.606 217.546 164.47 216.49 164.638 216.833Z" fill="#400003"/>
<path d="M107.249 311.788C109.289 311.167 112.999 317.415 115.536 325.744C118.072 334.073 118.474 341.329 116.433 341.95C114.392 342.572 110.682 336.323 108.146 327.994C105.61 319.665 105.208 312.41 107.249 311.788Z" fill="url(#paint15_linear_402_2)"/>
<path d="M109.929 310.972C113.45 309.899 118.361 315.782 120.897 324.111C123.433 332.44 122.635 340.061 119.114 341.133C115.592 342.206 110.682 336.323 108.146 327.994C105.609 319.665 106.408 312.044 109.929 310.972Z" fill="url(#paint16_linear_402_2)"/>
<path d="M106.932 316.272C107.526 316.091 109.447 320.673 111.223 326.506C112.999 332.34 113.958 337.215 113.364 337.396C112.771 337.577 110.849 332.994 109.073 327.161C107.297 321.328 106.338 316.452 106.932 316.272Z" fill="#400104"/>
<path d="M180.004 382.329C180.084 381.2 187.202 380.424 195.902 380.597C204.602 380.77 211.591 381.825 211.511 382.955C211.431 384.085 204.313 384.86 195.613 384.688C186.912 384.515 179.924 383.459 180.004 382.329Z" fill="url(#paint17_linear_402_2)"/>
<path d="M180.109 380.845C180.247 378.896 187.412 377.455 196.112 377.628C204.813 377.801 211.754 379.521 211.616 381.471C211.478 383.42 204.313 384.86 195.613 384.688C186.913 384.515 179.971 382.794 180.109 380.845Z" fill="url(#paint18_linear_402_2)"/>
<path d="M184.137 383.265C184.16 382.936 189.118 382.768 195.212 382.889C201.305 383.01 206.226 383.375 206.203 383.703C206.18 384.032 201.221 384.2 195.128 384.079C189.034 383.958 184.113 383.594 184.137 383.265Z" fill="#150303"/>
<path d="M269.63 347.47C267.934 346.698 269.114 340.461 272.267 333.539C275.419 326.618 279.349 321.632 281.045 322.405C282.741 323.177 281.56 329.414 278.408 336.336C275.256 343.258 271.326 348.243 269.63 347.47Z" fill="url(#paint19_linear_402_2)"/>
<path d="M267.401 346.457C264.475 345.124 264.658 338.433 267.81 331.511C270.962 324.589 275.89 320.058 278.816 321.391C281.742 322.724 281.559 329.415 278.407 336.337C275.255 343.258 270.327 347.789 267.401 346.457Z" fill="url(#paint20_linear_402_2)"/>
<path d="M272.427 344.718C271.934 344.493 273.324 340.381 275.531 335.533C277.739 330.685 279.929 326.938 280.422 327.162C280.916 327.387 279.526 331.499 277.318 336.347C275.111 341.195 272.921 344.942 272.427 344.718Z" fill="#130406"/>
<path d="M270.089 251.407C269.129 252.061 266.188 249.417 263.519 245.501C260.849 241.586 259.463 237.881 260.422 237.227C261.382 236.573 264.323 239.217 266.993 243.133C269.662 247.049 271.048 250.753 270.089 251.407Z" fill="url(#paint21_linear_402_2)"/>
<path d="M268.829 252.266C267.173 253.394 263.667 251.135 260.998 247.22C258.329 243.304 257.507 239.215 259.162 238.087C260.818 236.958 264.324 239.217 266.993 243.133C269.662 247.048 270.484 251.137 268.829 252.266Z" fill="url(#paint22_linear_402_2)"/>
<path d="M269.526 249.026C269.247 249.216 267.505 247.147 265.635 244.405C263.766 241.663 262.477 239.286 262.756 239.095C263.035 238.905 264.777 240.974 266.646 243.716C268.516 246.458 269.805 248.836 269.526 249.026Z" fill="#3D0002"/>
<path d="M216.353 287.466C216.353 292.047 212.64 295.761 208.059 295.761C203.478 295.761 199.765 292.047 199.765 287.466C199.765 282.886 203.478 279.172 208.059 279.172C212.64 279.172 216.353 282.886 216.353 287.466Z" fill="#91080D"/>
<path d="M144.692 348.07C142.61 349.864 138.498 348.504 135.509 345.034C132.519 341.563 131.783 337.296 133.865 335.502C135.948 333.708 140.059 335.067 143.049 338.538C146.039 342.008 146.775 346.276 144.692 348.07Z" fill="#79080D"/>
<path d="M209.718 231.067C209.718 233.815 206.005 236.043 201.424 236.043C196.844 236.043 193.13 233.815 193.13 231.067C193.13 228.318 196.844 226.09 201.424 226.09C206.005 226.09 209.718 228.318 209.718 231.067Z" fill="#BD0C14"/>
<path d="M258.665 336.004C260.472 338.075 259.139 342.195 255.687 345.207C252.235 348.218 247.972 348.981 246.165 346.91C244.358 344.839 245.692 340.719 249.143 337.707C252.595 334.696 256.858 333.933 258.665 336.004Z" fill="#580508"/>
<g filter="url(#filter1_d_402_2)">
<path d="M338.744 376.133V343.315H267.714L260.745 325.557L311.771 209.345H351.332L306.825 310.272H338.744V281.95L346.162 261.495H377.631V310.272H392.691V337.246L377.631 343.315V376.133H338.744Z" fill="#3E404E"/>
</g>
</g>
<path d="M126.384 227.357L130.251 228.86L142.709 224.35C142.709 224.35 145.274 226.493 146.791 228.001C147.927 229.132 148.812 229.604 149.583 231.009C149.891 231.569 150.423 231.904 150.228 232.512C150.063 233.023 149.653 233.174 149.154 233.371C148.529 233.618 148.101 233.458 147.435 233.371C145.872 233.167 143.998 231.653 143.354 232.083C142.709 232.512 142.642 233.535 142.28 234.875C141.918 236.216 144.494 239.906 143.354 242.823C143.039 243.627 143.054 244.374 142.28 244.756C141.678 245.053 141.205 244.944 140.561 244.756C139.364 244.406 139.155 243.396 138.413 242.393C137.03 240.523 135.836 237.023 135.836 237.023C135.836 237.023 136.666 239.74 136.91 241.534C137.08 242.784 137.434 243.533 137.124 244.756C136.968 245.375 137.015 245.911 136.48 246.26C136.122 246.493 135.834 246.475 135.406 246.475C134.978 246.475 134.721 246.438 134.332 246.26C133.629 245.937 133.466 245.404 133.043 244.756C132.447 243.843 132.376 243.19 131.969 242.178C131.068 239.937 129.821 236.379 129.821 236.379C129.821 236.379 130.24 240.341 129.821 242.823C129.692 243.585 130.044 244.341 129.391 244.756C129.1 244.942 128.878 244.971 128.532 244.971C128.186 244.971 127.986 244.904 127.673 244.756C126.853 244.368 126.8 243.629 126.384 242.823C125.739 241.573 125.568 240.768 125.31 239.386C124.91 237.242 124.777 235.986 124.881 233.801C124.945 232.45 124.991 231.679 125.31 230.364C125.604 229.152 126.384 227.357 126.384 227.357Z" fill="#C0C0C0"/>
<path d="M129.821 167.211C129.821 167.211 143.475 152.497 154.739 147.02C166.767 141.17 188.248 139.931 188.248 139.931C188.248 139.931 196.968 152.561 201.137 161.412C207.402 174.714 211.877 197.499 211.877 197.499L164.834 225.209C164.834 225.209 152.056 210.583 145.502 200.077C137.975 188.011 129.821 167.211 129.821 167.211Z" fill="#CACACA"/>
<path d="M146.576 144.442C135.312 149.92 121.658 164.634 121.658 164.634C121.658 164.634 129.813 185.433 137.339 197.499C143.893 208.005 156.671 222.631 156.671 222.631L164.834 225.209C164.834 225.209 152.056 210.583 145.502 200.077C137.975 188.011 129.821 167.211 129.821 167.211C129.821 167.211 143.475 152.497 154.739 147.02C166.767 141.17 188.248 139.931 188.248 139.931C188.248 139.931 196.968 152.561 201.137 161.412C206.925 173.699 211.184 194.078 211.8 197.116L211.877 197.069C211.877 197.069 209.09 176.287 203.714 164.204C199.145 153.935 188.248 139.931 188.248 139.931L180.086 137.353C180.086 137.353 158.605 138.592 146.576 144.442Z" fill="#ACAAAA"/>
<path d="M121.658 164.634C121.658 164.634 129.813 185.433 137.339 197.499C143.893 208.005 156.671 222.631 156.671 222.631L164.834 225.209C164.834 225.209 152.056 210.583 145.502 200.077C137.975 188.011 129.821 167.211 129.821 167.211L121.658 164.634Z" fill="#BBB8B8"/>
<path d="M135.836 237.024C135.836 237.024 137.03 240.523 138.413 242.394C139.155 243.396 139.364 244.407 140.561 244.757C141.205 244.945 141.678 245.053 142.28 244.757C142.882 244.46 142.426 243.829 142.065 243.468C141.705 243.107 141.226 243.494 140.777 243.253C140.015 242.846 140.157 242.054 139.702 241.32C139.163 240.449 138.713 240.057 138.199 239.172C137.822 238.523 137.938 237.906 137.34 237.453C136.852 237.085 135.836 237.024 135.836 237.024Z" fill="#D6D6D6"/>
<path d="M129.82 236.379C129.82 236.379 131.067 239.938 131.968 242.179C132.375 243.19 132.446 243.843 133.043 244.756C133.465 245.404 133.629 245.937 134.331 246.26C134.72 246.438 134.978 246.475 135.405 246.475C135.833 246.475 135.644 245.961 135.621 245.615C135.575 244.962 135.793 244.855 135.406 244.327C134.827 243.538 134.512 243.685 134.05 242.823C133.482 241.764 132.92 240.468 132.398 239.386C131.99 238.542 132.386 237.931 131.754 237.238C131.392 236.841 130.642 236.467 129.82 236.379Z" fill="#D6D6D6"/>
<path d="M125.31 230.365C124.991 231.679 124.945 232.45 124.881 233.801C124.777 235.986 124.91 237.242 125.31 239.386C125.568 240.769 125.739 241.574 126.384 242.823C126.8 243.63 126.853 244.368 127.673 244.757C127.986 244.905 128.186 244.971 128.532 244.971C128.532 244.971 127.585 242.128 127.244 240.246C126.972 238.751 126.718 237.895 126.814 236.379C126.907 234.917 127.116 234.082 127.673 232.727C128.363 231.049 130.251 228.861 130.251 228.861L126.384 227.357C126.384 227.357 125.604 229.153 125.31 230.365Z" fill="#D6D6D6"/>
<path d="M142.996 159.661C142.952 159.346 143.221 159.082 143.537 159.111C145.16 159.258 146.434 159.224 148.295 159.049C152.104 158.689 154.182 157.862 157.746 156.471C159.46 155.802 160.403 155.372 162.042 154.538C165.133 152.965 166.777 151.881 169.56 149.812C172.216 147.839 173.929 146.884 175.96 144.343C176.112 144.153 176.378 144.092 176.585 144.218C179.23 145.82 179.282 148.581 180.515 150.671C180.515 150.671 175.439 152.555 172.568 155.182C169.458 158.028 167.309 159.087 163.331 160.767C159.586 162.35 156.839 163.049 152.806 163.56C149.294 164.005 145.502 166.137 145.502 166.137C144.163 163.563 143.324 162.046 142.996 159.661Z" fill="url(#paint23_linear_402_2)"/>
<path d="M211.233 256.141C211.405 255.149 211.233 253.564 211.233 253.564L226.269 257.43L225.195 261.082C225.195 261.082 230.823 267.141 231.639 272.037C232.069 274.615 230.844 280.414 227.128 280.414C220.47 280.414 217.834 277.402 214.025 272.896C210.626 268.875 207.437 265.504 208.87 260.437C209.391 258.595 210.906 258.028 211.233 256.141Z" fill="#C0C0C0"/>
<path d="M225.195 261.081L226.269 257.43H220.899C220.899 257.43 219.871 259.36 220.04 260.652C220.258 262.315 221.249 263.119 222.617 264.089C224.047 265.101 225.475 264.379 226.914 265.377C228.237 266.296 228.56 267.284 229.491 268.599C230.406 269.891 231.639 272.036 231.639 272.036C230.823 267.14 225.195 261.081 225.195 261.081Z" fill="#9C9C9C"/>
<path d="M211.233 256.141C210.906 258.028 209.391 258.595 208.87 260.437C207.437 265.504 210.626 268.875 214.025 272.896C217.834 277.402 220.47 280.414 227.128 280.414C227.128 280.414 222.501 279.293 220.04 277.622C217.337 275.786 216.187 274.163 214.455 271.392C213.322 269.579 212.53 268.545 212.092 266.452C211.714 264.646 211.501 263.474 212.092 261.726C212.54 260.404 213.468 259.999 214.025 258.719C214.545 257.525 214.885 255.497 214.885 255.497L211.233 253.564C211.233 253.564 211.405 255.149 211.233 256.141Z" fill="#D6D6D6"/>
<path d="M143.225 160.982C144.513 161.412 147.325 161.609 149.412 161.412C153.221 161.052 155.471 160.44 159.035 159.049C160.749 158.38 161.691 157.95 163.331 157.115C166.422 155.543 168.495 154.243 171.279 152.175C174.047 150.118 177.25 147.879 178.325 145.731C178.754 146.16 179.216 147.423 179.7 149.168C179.7 149.168 176.557 154.488 173.685 157.115C170.576 159.961 168.427 161.02 164.449 162.7C160.704 164.283 157.957 164.982 153.923 165.493C150.412 165.938 144.902 164.634 144.902 164.634C144.471 164.634 143.439 162.271 143.225 160.982Z" fill="url(#paint24_linear_402_2)"/>
<path d="M228.417 141.65C228.417 141.65 229.893 141.524 230.78 141.22C231.774 140.879 232.296 140.554 233.143 139.931C234.099 139.229 234.445 138.615 235.291 137.783C237.83 135.286 241.95 131.554 241.95 131.554C241.95 131.554 242.748 131.197 243.239 131.339C243.642 131.455 243.833 131.658 244.098 131.983C244.334 132.275 244.453 132.475 244.528 132.843C244.628 133.343 244.433 133.636 244.313 134.131C243.768 136.369 241.091 138.975 241.52 139.287L241.95 139.502C242.379 139.502 244.437 137.454 246.246 136.494C247.142 136.02 247.627 135.672 248.609 135.42C249.506 135.19 250.192 134.705 250.972 135.205C251.481 135.532 251.672 135.911 251.831 136.494C251.963 136.98 251.889 137.283 251.831 137.783C251.51 140.553 246.224 141.864 246.676 142.724C246.816 142.991 246.835 143.233 247.105 143.368C247.535 143.583 249.219 143.395 250.542 143.153C252.291 142.834 253.067 141.797 254.838 141.65C255.423 141.601 255.786 141.461 256.342 141.65C256.962 141.86 257.497 142.082 257.631 142.724C257.739 143.243 257.449 143.544 257.201 144.012C256.757 144.851 256.232 145.148 255.483 145.731C254.298 146.652 253.436 146.885 252.046 147.449C250.028 148.269 248.583 147.903 246.676 148.953C245.779 149.447 244.528 149.433 244.528 150.457C244.528 151.96 248.816 152.609 249.253 155.182C249.38 155.927 249.694 156.503 249.253 157.116C248.834 157.697 248.242 157.643 247.535 157.76C245.781 158.05 244.946 156.751 243.239 156.256C241.421 155.73 240.395 155.386 238.513 155.182C236.762 154.993 234.002 155.182 234.002 155.182L233.358 144.872L228.417 141.65Z" fill="#C0C0C0"/>
<path d="M254.838 141.65C253.066 141.797 252.29 142.834 250.542 143.153C250.112 143.368 250.111 143.369 249.897 143.583L249.897 143.583C249.683 143.797 249.408 143.931 249.468 144.227C249.527 144.524 249.827 144.555 250.112 144.657C250.764 144.89 251.184 144.475 251.831 144.227C252.356 144.026 252.583 143.753 253.119 143.583C253.606 143.429 253.903 143.443 254.408 143.368C255.077 143.269 255.465 143.291 256.127 143.153C256.725 143.029 257.764 143.365 257.63 142.724C257.497 142.082 256.962 141.86 256.341 141.65C255.785 141.461 255.423 141.601 254.838 141.65Z" fill="#D6D6D6"/>
<path d="M246.246 136.494C244.527 137.568 243.453 138.428 243.453 138.428C243.453 138.428 242.979 138.824 243.238 139.287C243.577 139.89 244.297 139.921 244.957 139.716C245.472 139.488 245.736 139.31 246.246 139.072C246.825 138.802 247.201 138.754 247.75 138.428C248.517 137.972 248.714 137.399 249.468 136.924C249.944 136.624 250.446 136.748 250.757 136.28C250.994 135.923 251.752 135.706 250.972 135.206C250.192 134.705 249.507 135.19 248.609 135.42C247.627 135.672 247.106 135.957 246.246 136.494Z" fill="#D6D6D6"/>
<path d="M230.78 141.22C229.893 141.524 229.213 141.153 228.417 141.65C226.463 142.869 231.086 145.252 233.358 144.872C234.621 144.66 234.985 143.685 236.15 143.153C236.802 142.856 237.289 142.931 237.869 142.509C238.398 142.123 238.725 141.838 238.943 141.22C239.288 140.241 238.14 139.668 238.298 138.642C238.491 137.399 239.484 137.077 240.231 136.065C240.909 135.147 241.159 134.524 241.95 133.702C242.695 132.928 244.362 132.309 244.098 131.983C243.833 131.658 243.642 131.455 243.239 131.339C242.748 131.197 241.95 131.554 241.95 131.554C241.95 131.554 237.83 135.286 235.291 137.783C234.445 138.615 234.099 139.229 233.143 139.931C232.296 140.554 231.774 140.879 230.78 141.22Z" fill="#D6D6D6"/>
<path d="M186.052 281.405C186.791 280.365 188.017 278.795 188.017 278.795L195.875 280.1L200.922 278.266L204.389 270.748C204.389 270.748 205.226 272.855 205.698 274.228C206.162 275.574 206.573 276.3 206.79 277.708C207.222 280.51 206.652 282.214 205.698 284.885C204.287 288.839 202.317 290.588 199.368 293.585C196.515 296.484 191.073 299.892 191.073 299.892C191.073 299.892 185.13 302.747 182.341 300.762C180.841 299.694 180.259 298.605 179.722 296.847C178.807 293.851 180.328 291.936 181.468 289.018C182.731 285.787 184.042 284.235 186.052 281.405Z" fill="#C0C0C0"/>
<path d="M205.698 274.228C205.225 272.855 204.388 270.748 204.388 270.748C204.388 270.748 199.778 275.242 200.922 278.266C201.531 279.876 203.341 279.87 203.929 281.488C204.827 283.957 203.227 285.611 201.996 287.932C201.014 289.785 200.178 290.67 198.774 292.228C197.184 293.993 196.467 294.764 194.907 296.31C193.452 297.752 191.073 299.892 191.073 299.892C191.073 299.892 196.515 296.484 199.368 293.585C202.316 290.588 204.286 288.839 205.698 284.885C206.652 282.214 207.222 280.51 206.79 277.708C206.573 276.3 206.162 275.574 205.698 274.228Z" fill="#9C9C9C"/>
<path d="M186.053 281.405C184.043 284.235 182.731 285.787 181.469 289.018C180.328 291.937 178.808 293.851 179.722 296.848C180.259 298.607 181.16 300.176 182.342 300.763C182.235 300.089 182.018 300.444 181.805 299.102C181.591 297.761 181.299 296.48 181.469 294.806C181.673 292.785 182.239 291.708 183.093 289.866C184.01 287.89 184.478 286.644 186.053 285.14C186.751 284.472 187.221 284.183 188.017 283.636C190.791 281.73 196.409 282.775 195.876 280.1C195.267 277.049 188.017 278.795 188.017 278.795C188.017 278.795 186.791 280.365 186.053 281.405Z" fill="#D6D6D6"/>
<path d="M143.845 163.058C149.215 163.058 150.615 163.108 154.739 162.271C158.898 161.427 161.23 160.685 165.049 158.834C168.546 157.139 170.468 155.983 173.427 153.464C175.957 151.309 177.938 149.168 179.226 147.234C180.086 148.308 180.043 148.799 180.945 149.383C181.26 149.586 181.448 149.695 181.804 149.812C183.344 150.316 184.098 148.698 185.671 148.308C187.632 147.822 188.811 148.03 190.826 147.879C195.183 147.551 197.638 147.553 201.996 147.234C205.859 146.952 208.058 147.025 211.877 146.375C218.024 145.329 220.901 141.961 227.128 141.65C228.385 141.587 229.122 141.376 230.35 141.65C233.077 142.256 234.064 144.126 235.72 146.375C236.899 147.977 237.766 148.923 238.083 150.886C238.453 153.177 238.341 154.956 236.794 156.686C235.059 158.628 232.757 157.409 230.35 158.404C227.638 159.526 226.716 161.424 223.906 162.271C222.043 162.833 220.849 162.429 218.965 162.915C215.587 163.787 214.26 165.707 211.018 166.997C208.725 167.909 207.428 168.476 205.003 168.93C203.264 169.256 202.258 169.249 200.492 169.359C197.143 169.568 196.84 168.5 192.759 169.359C192.759 170.433 192.782 170.822 193.404 171.722C194.758 173.685 195.804 174.568 197.27 176.448C202.563 183.237 203.236 188.81 209.299 194.921C210.046 195.674 210.666 195.922 211.259 196.801C212.081 198.019 211.596 199.144 212.36 200.399C213.611 202.455 215.299 202.782 217.422 203.916C218.996 204.758 220.1 204.786 221.624 205.715C223.444 206.826 224.213 207.816 225.732 209.313C226.989 210.553 227.54 211.397 228.793 212.643C230.553 214.393 232.063 214.861 233.572 216.831C234.896 218.559 235.519 219.689 236.15 221.772C236.666 223.475 236.889 224.506 236.794 226.283C236.683 228.377 235.87 229.423 235.291 231.438C233.992 235.957 233.669 238.617 232.069 243.038C230.471 247.451 228.471 249.496 227.128 253.993C226.487 256.138 227.415 257.988 225.839 259.578C224.419 261.01 222.915 261.044 220.899 261.081C218.905 261.118 217.739 260.69 215.958 259.793C214.722 259.169 214.002 258.766 213.058 257.752C211.921 256.529 210.357 255.651 210.158 253.993C209.514 248.623 210.488 246.776 211.662 242.393C212.243 240.226 213.605 239.265 213.703 237.023C213.782 235.223 213.52 234.134 212.736 232.512C208.655 230.149 206.292 230.149 198.559 228.646C198.129 228.646 196.84 228.646 195.981 232.727C195.552 235.52 196.315 238.259 197.27 241.964C198.154 245.392 198.402 247.38 199.418 250.771C200.782 255.323 202.119 257.679 203.714 262.156C204.489 264.33 205.325 265.455 205.648 267.74C205.882 269.402 205.923 270.382 205.648 272.037C205.154 274.997 204.449 276.841 202.64 279.34C201.7 280.638 201.271 281.611 199.848 282.347C198.276 283.161 197.106 282.74 195.337 282.777C193.657 282.811 192.691 282.875 191.041 282.562C189.659 282.3 188.765 282.282 187.604 281.488C186.522 280.748 186.233 279.966 185.456 278.91C183.032 275.616 182.123 273.301 180.515 269.459C178.456 264.537 177.805 261.564 176.649 256.356C176.167 254.188 176.055 252.939 175.575 250.771C174.633 246.518 175.059 245.585 172.997 241.749C171.801 239.524 169.795 237.093 168.808 234.768C167.857 232.526 168.272 230.831 167.197 228.646C165.809 225.824 165.909 228.646 162.686 222.202C159.797 216.422 156.242 214.039 154.524 207.81C154.226 206.731 154.111 206.112 153.879 205.017C153.597 203.681 153.5 202.92 153.235 201.58C152.5 197.867 152.161 193.632 151.087 192.129C150.67 192.085 150.432 192.108 150.013 192.129C146.576 192.303 149.426 204.992 146.146 212.321C145.533 213.69 144.83 214.312 144.428 215.757C143.867 217.778 144.869 219.077 144.428 221.128C143.939 223.402 143.385 224.75 141.85 226.498C140.499 228.037 139.501 228.87 137.554 229.505C135.481 230.181 134.14 229.716 131.969 229.505C130.102 229.324 128.865 229.59 127.243 228.646C125.858 227.839 125.064 227.119 124.451 225.639C123.777 224.011 124.641 222.879 124.451 221.128C124.276 219.508 123.85 218.654 123.592 217.046C123.364 215.629 122.968 214.817 123.162 213.395C123.306 212.343 123.774 211.849 124.021 210.817C124.395 209.258 124.416 208.338 124.451 206.736C124.495 204.716 123.922 203.598 124.021 201.58C124.084 200.312 124.287 199.617 124.451 198.358C124.899 194.922 124.552 192.877 125.525 189.551C125.875 188.354 126.061 187.669 126.599 186.544C127.151 185.389 127.607 184.817 128.318 183.751C129.183 182.453 129.826 181.835 130.68 180.529C132.529 177.704 132.761 175.662 134.547 172.796C135.408 171.414 135.85 170.596 136.91 169.359C138.734 167.23 139.773 165.521 142.495 164.849C142.99 164.726 143.407 164.979 143.784 164.634C144.221 164.233 143.684 163.629 143.845 163.058Z" fill="url(#paint25_linear_402_2)"/>
<path d="M211.261 196.801C210.667 195.922 210.047 195.674 209.3 194.921C203.237 188.81 202.565 183.237 197.271 176.448C195.805 174.568 194.759 173.685 193.405 171.722C192.784 170.822 192.76 169.36 192.76 169.36C192.76 169.36 190.61 168.9 189.538 168.071C187.14 166.216 188.034 160.552 187.604 160.552C183.037 160.553 188.278 167.66 189.109 172.152C189.608 174.854 189.811 176.397 190.612 179.026C192.046 183.728 193.302 186.29 195.982 190.41C199.059 195.141 200.714 198.413 205.649 201.151C209.779 203.442 219.546 205.051 217.423 203.916C215.3 202.782 213.613 202.455 212.361 200.399C211.598 199.144 212.083 198.019 211.261 196.801Z" fill="url(#paint26_linear_402_2)"/>
<path d="M192.759 169.359C196.84 168.5 197.143 169.568 200.492 169.359C203.841 169.151 196.851 168.509 194.907 167.211C193.476 166.256 192.828 165.491 191.685 164.204C190.448 162.812 187.604 160.552 187.604 160.552C187.604 160.552 187.516 162.957 187.819 164.204C188.17 165.649 188.018 166.765 189.108 167.856C190.143 168.892 192.759 169.359 192.759 169.359Z" fill="url(#paint27_linear_402_2)"/>
<path d="M198.559 228.646C206.292 230.15 208.655 230.15 212.736 232.512C213.52 234.135 213.782 235.224 213.703 237.023C213.605 239.265 212.243 240.226 211.662 242.394C210.489 246.776 209.514 248.623 210.159 253.993C210.358 255.651 211.921 256.529 213.059 257.752C214.197 258.975 214.643 256.877 214.67 255.926C214.697 254.944 213.545 254.847 213.059 253.993C212.052 252.225 212.167 250.867 212.307 248.838C212.491 246.164 213.819 244.935 214.67 242.394C215.698 239.323 217.574 237.638 217.033 234.446C216.592 231.85 215.584 230.372 213.596 228.646C211.132 226.507 208.909 225.954 205.648 226.068C202.704 226.172 199.203 227.142 198.559 228.646Z" fill="#B26F34"/>
<path d="M166.111 178.596L166.97 177.952C166.97 177.952 167.268 181.356 167.185 183.537C167.101 185.731 167.163 187.016 166.54 189.122C165.72 191.896 164.028 192.907 162.889 195.566C162.189 197.2 161.385 199.862 161.385 199.862C161.385 199.862 160.041 194.193 160.741 192.559C161.88 189.9 163.572 188.888 164.392 186.115C165.015 184.009 164.953 182.724 165.037 180.53C166.111 178.596 166.111 178.596 166.111 178.596Z" fill="#D18643"/>
<path d="M143.784 164.634C143.407 164.979 142.99 164.726 142.495 164.849C139.773 165.521 138.734 167.23 136.91 169.359C135.85 170.597 135.408 171.414 134.547 172.796C132.761 175.662 132.529 177.704 130.68 180.529C129.826 181.835 129.183 182.453 128.318 183.751C127.607 184.817 127.151 185.389 126.599 186.544C126.061 187.669 125.875 188.354 125.525 189.551C124.552 192.877 124.899 194.922 124.451 198.358C124.287 199.617 124.084 200.312 124.021 201.58C123.922 203.598 124.495 204.716 124.451 206.736C124.416 208.338 124.395 209.259 124.021 210.817C123.774 211.849 123.306 212.343 123.162 213.395C122.968 214.817 123.364 215.629 123.592 217.046C123.85 218.654 124.276 219.508 124.451 221.128C124.641 222.879 123.777 224.011 124.451 225.639C125.064 227.119 125.858 227.839 127.243 228.646C128.865 229.59 130.102 229.324 131.969 229.505C133.836 229.686 132.276 220.957 133.043 215.543C134.008 208.732 135.035 204.977 136.91 198.358C138.746 191.875 139.903 188.253 142.495 182.033C145.424 175.003 158.332 167.562 151.302 164.634H143.784Z" fill="#E5A064"/>
<path d="M191.041 282.562C192.691 282.875 195.337 282.777 195.337 282.777C199.61 281.311 192.617 276.27 191.041 272.036C189.615 268.208 188.78 266.068 187.604 262.155C186.655 258.999 186.966 256.923 185.456 253.993C184.249 251.651 182.609 250.949 181.375 248.623C179.208 244.539 179.439 241.626 179.012 237.023C178.648 233.097 179.012 230.87 179.012 226.927C179.012 223.823 179.28 222.072 179.012 218.979C178.784 216.355 179.677 214.298 177.938 212.32C176.548 210.741 175.098 196.802 172.997 196.686C170.586 196.552 169.142 197.401 167.197 198.834C163.783 201.35 159.464 215.757 162.687 222.202C165.909 228.646 165.809 225.824 167.197 228.646C168.272 230.831 167.857 232.526 168.808 234.768C169.795 237.093 171.801 239.524 172.997 241.749C175.06 245.585 174.633 246.518 175.575 250.771C176.055 252.939 176.168 254.187 176.649 256.356L176.682 256.507C177.818 261.622 178.476 264.585 180.515 269.459C182.123 273.301 182.956 275.579 185.456 278.91C186.243 279.958 186.522 280.748 187.604 281.488C188.765 282.282 189.659 282.3 191.041 282.562Z" fill="#E5A064"/>
<path d="M168.221 163.785L168.952 163.334C168.952 163.334 172.805 168.232 174.969 171.581C179.008 177.833 179.969 182.075 183.562 188.593C185.507 192.121 186.778 193.997 188.718 197.528C191.564 202.711 193.903 205.352 195.592 211.018C197.109 216.107 197.311 224.508 197.311 224.508L196.58 224.959C196.58 224.959 196.378 216.559 194.861 211.47C193.172 205.803 190.833 203.162 187.987 197.98C186.047 194.449 184.776 192.573 182.831 189.044C179.238 182.526 178.277 178.284 174.238 172.033C172.074 168.684 168.221 163.785 168.221 163.785Z" fill="url(#paint28_linear_402_2)"/>
<path d="M180.515 149.168C180.515 149.168 181.163 149.577 181.589 149.726C182.449 150.027 182.415 149.897 182.878 149.812C183.738 149.597 184.117 148.885 185.026 148.523C185.594 148.297 185.932 148.219 186.53 148.094C187.601 147.87 188.231 147.949 189.322 147.879C191.333 147.749 192.465 147.754 194.478 147.664C196.24 147.585 197.228 147.551 198.989 147.449C201.34 147.313 202.653 147.169 205.003 147.02C206.429 146.929 208.655 146.805 208.655 146.805C209.046 147.21 209.13 147.557 209.299 148.094C209.978 150.248 208.766 151.885 207.151 153.464C205.33 155.245 203.452 155.106 200.922 155.397C197.645 155.774 195.826 154.659 192.545 154.323C186.61 153.715 177.293 153.464 177.293 153.464L179.227 151.316L180.515 149.168Z" fill="#E49046"/>
<path d="M143.999 164.204C143.999 164.204 157.223 164.933 164.941 161.841C172.371 158.866 180.644 149.168 180.644 149.168C180.836 149.319 180.948 149.397 181.159 149.524C181.159 149.524 172.785 159.38 165.479 162.486C157.559 165.853 143.783 164.634 143.783 164.634C143.936 164.491 143.968 164.394 143.999 164.204Z" fill="url(#paint29_linear_402_2)"/>
<path d="M143.999 164.204C143.999 164.204 157.223 164.933 164.941 161.841C172.371 158.866 180.644 149.168 180.644 149.168C180.836 149.319 180.948 149.397 181.159 149.524C181.159 149.524 172.785 159.38 165.479 162.486C157.559 165.853 143.783 164.634 143.783 164.634C143.936 164.491 143.968 164.394 143.999 164.204Z" fill="url(#paint30_linear_402_2)"/>
<path d="M149.369 177.952H149.799C149.799 177.952 151.674 182.573 151.732 185.685C151.779 188.226 150.658 192.103 150.658 192.103C150.241 192.117 150.411 192.116 150.228 192.116C150.228 192.116 151.383 188.098 151.302 185.47C151.209 182.44 149.369 177.952 149.369 177.952Z" fill="url(#paint31_linear_402_2)"/>
<path d="M116.928 123.433C117.524 120.621 118.217 119.077 119.684 116.559C121.067 114.188 122.115 112.981 124.049 110.975C126.78 108.143 128.624 106.754 132.09 104.745C135.435 102.806 137.533 102.005 141.279 100.879C145.366 99.6497 147.787 99.1057 152.077 98.9454C155.494 98.8177 157.452 98.9666 160.807 99.5898C162.813 99.9626 163.975 100.137 165.861 100.879C167.676 101.592 168.654 102.132 170.226 103.242C174.237 106.075 175.335 108.915 177.577 113.123C178.744 115.312 179.259 116.608 180.104 118.922C180.976 121.311 181.516 122.66 181.942 125.152C182.551 128.714 182.947 130.906 181.942 134.388C181.127 137.214 180.074 138.658 178.266 141.047C176.652 143.18 175.573 144.298 173.442 145.988C170.801 148.081 168.906 148.744 165.861 150.284C162.118 152.176 160.032 153.361 155.982 154.58C150.124 156.343 146.366 157.77 140.36 156.513C137.222 155.857 135.504 155.103 132.779 153.506C130.619 152.239 129.555 151.3 127.725 149.64C123.848 146.122 121.865 143.736 119.684 139.114C117.006 133.436 115.636 129.521 116.928 123.433Z" fill="url(#paint32_linear_402_2)"/>
<path d="M120.762 136.321L131.287 153.506C131.287 153.506 128.12 153.663 126.347 152.861C124.346 151.957 123.553 150.773 122.265 148.995C121.011 147.263 120.436 146.125 119.903 144.054C119.212 141.374 120.762 136.321 120.762 136.321Z" fill="#B7B6B2"/>
<path d="M175.575 114.584C175.575 114.584 179.947 116.114 181.123 116.989C182.123 117.734 182.58 118.314 183.271 119.352C184.359 120.987 184.703 122.135 184.989 124.078C185.197 125.489 185.197 126.319 184.989 127.729C184.703 129.672 181.123 135.635 181.123 135.635L175.575 114.584Z" fill="#B7B7C3"/>
<g filter="url(#filter2_f_402_2)">
<path d="M179.834 118.953L180.788 118.278C180.788 118.278 181.723 119.757 182.22 120.753C182.898 122.112 183.208 122.911 183.651 124.354C183.865 125.05 184.237 125.437 184.128 126.154C184.022 126.856 183.174 127.729 183.174 127.729C183.174 127.729 182.689 125.509 182.22 124.129C181.506 122.03 179.834 118.953 179.834 118.953Z" fill="#62635E" fill-opacity="0.5"/>
</g>
<path d="M120.332 126.87C120.89 124.058 121.538 122.514 122.91 119.996C124.203 117.624 125.183 116.418 126.991 114.411C129.545 111.58 131.269 110.191 134.51 108.182C137.637 106.243 139.599 105.442 143.102 104.316C146.923 103.087 149.187 102.543 153.198 102.382C156.393 102.255 158.224 102.403 161.36 103.027C163.237 103.399 164.323 103.574 166.086 104.316C167.784 105.029 168.698 105.568 170.167 106.678C173.918 109.512 174.944 112.352 177.041 116.559C178.132 118.748 178.614 120.045 179.404 122.359C180.219 124.747 180.724 126.097 181.122 128.589C181.692 132.15 182.062 134.343 181.122 137.825C180.36 140.651 179.376 142.095 177.686 144.484C176.177 146.617 175.168 147.735 173.175 149.425C170.706 151.518 168.933 152.181 166.086 153.721C162.587 155.613 160.636 156.798 156.849 158.017C151.372 159.78 147.858 161.207 142.243 159.95C139.308 159.293 137.702 158.54 135.154 156.943C133.134 155.676 132.14 154.737 130.428 153.076C126.803 149.558 124.949 147.173 122.91 142.551C120.405 136.873 119.125 132.957 120.332 126.87Z" fill="url(#paint33_linear_402_2)"/>
<path d="M128.495 130.737C130.428 127.515 131.19 126.41 133.436 124.078C136.008 121.407 137.78 120.194 140.954 118.278C144.039 116.416 145.945 115.643 149.332 114.411C154.057 112.693 156.42 112.263 160.287 112.263C163.019 112.263 164.85 113.964 166.516 116.13C168.664 118.922 169.15 119.562 170.812 122.789C172.139 125.365 173.605 129.663 173.605 129.663C173.605 129.663 174.613 133.314 173.605 135.248C171.027 140.188 166.453 144.142 160.287 147.706C153.852 151.426 151.909 152.862 142.028 152.432C137.302 151.358 130.078 144.396 128.495 136.107C128.163 134.369 127.585 132.254 128.495 130.737Z" fill="url(#paint34_linear_402_2)"/>
<path d="M137.732 120.211C140.843 117.892 142.972 116.801 146.539 115.271C150.002 113.785 152.036 112.941 155.775 112.478C157.11 112.313 159.212 112.264 159.212 112.264C159.212 112.264 151.222 120.628 148.472 127.3C145.439 134.66 145.68 147.492 145.68 147.492L136.658 148.351C136.658 148.351 128.666 134.634 129.999 129.018C130.428 127.209 131.646 125.822 133.221 124.078C134.77 122.362 135.879 121.593 137.732 120.211Z" fill="url(#paint35_linear_402_2)"/>
<path fill-rule="evenodd" clip-rule="evenodd" d="M132.779 123.723C130.449 126.155 129.659 127.306 127.654 130.666C126.814 132.073 127.196 133.973 127.533 135.651C127.575 135.859 127.616 136.065 127.654 136.266C129.296 144.909 136.79 152.168 141.692 153.288C151.454 153.715 153.746 152.377 159.709 148.898L160.632 148.36C167.028 144.644 171.773 140.521 174.446 135.37C175.493 133.353 174.446 129.546 174.446 129.546C174.446 129.546 172.926 125.065 171.55 122.379C169.826 119.014 169.322 118.347 167.094 115.436C165.366 113.177 163.466 111.404 160.632 111.404C156.621 111.404 154.17 111.852 149.268 113.644C145.755 114.928 143.778 115.734 140.578 117.675C137.285 119.674 135.448 120.938 132.779 123.723ZM133.435 124.078C131.189 126.41 130.428 127.514 128.495 130.736C127.686 132.086 128.053 133.907 128.378 135.516C128.418 135.716 128.458 135.914 128.495 136.107C130.078 144.396 137.302 151.358 142.028 152.432C151.438 152.841 153.649 151.558 159.397 148.222C159.684 148.055 159.98 147.883 160.286 147.706C166.452 144.142 171.026 140.188 173.604 135.247C174.613 133.314 173.604 129.662 173.604 129.662C173.604 129.662 172.138 125.365 170.812 122.789C169.15 119.562 168.664 118.922 166.515 116.13C164.849 113.964 163.019 112.263 160.286 112.263C156.42 112.263 154.057 112.693 149.331 114.411C145.945 115.643 144.038 116.416 140.954 118.278C137.779 120.194 136.008 121.407 133.435 124.078Z" fill="url(#paint36_linear_402_2)"/>
<path d="M225.598 232.956C227.405 231.253 229.424 227.787 229.424 227.787C229.424 227.787 228.999 229.131 228.659 229.963C227.874 231.885 227.165 232.781 225.598 234.045C224.037 235.304 221.261 235.949 221.261 235.949C221.261 235.949 224.086 234.381 225.598 232.956Z" fill="#AC7341"/>
<defs>
<filter id="filter0_d_402_2" x="94.9465" y="205.345" width="297.745" height="184.007" filterUnits="userSpaceOnUse" color-interpolation-filters="sRGB">
<feFlood flood-opacity="0" result="BackgroundImageFix"/>
<feColorMatrix in="SourceAlpha" type="matrix" values="0 0 0 0 0 0 0 0 0 0 0 0 0 0 0 0 0 0 127 0" result="hardAlpha"/>
<feOffset dx="-7"/>
<feGaussianBlur stdDeviation="2"/>
<feColorMatrix type="matrix" values="0 0 0 0 0 0 0 0 0 0 0 0 0 0 0 0 0 0 0.4 0"/>
<feBlend mode="normal" in2="BackgroundImageFix" result="effect1_dropShadow_402_2"/>
<feBlend mode="normal" in="SourceGraphic" in2="effect1_dropShadow_402_2" result="shape"/>
</filter>
<filter id="filter1_d_402_2" x="249.745" y="205.345" width="142.946" height="174.787" filterUnits="userSpaceOnUse" color-interpolation-filters="sRGB">
<feFlood flood-opacity="0" result="BackgroundImageFix"/>
<feColorMatrix in="SourceAlpha" type="matrix" values="0 0 0 0 0 0 0 0 0 0 0 0 0 0 0 0 0 0 127 0" result="hardAlpha"/>
<feOffset dx="-7"/>
<feGaussianBlur stdDeviation="2"/>
<feColorMatrix type="matrix" values="0 0 0 0 0 0 0 0 0 0 0 0 0 0 0 0 0 0 0.4 0"/>
<feBlend mode="normal" in2="BackgroundImageFix" result="effect1_dropShadow_402_2"/>
<feBlend mode="normal" in="SourceGraphic" in2="effect1_dropShadow_402_2" result="shape"/>
</filter>
<filter id="filter2_f_402_2" x="175.834" y="114.278" width="12.3136" height="17.4515" filterUnits="userSpaceOnUse" color-interpolation-filters="sRGB">
<feFlood flood-opacity="0" result="BackgroundImageFix"/>
<feBlend mode="normal" in="SourceGraphic" in2="BackgroundImageFix" result="shape"/>
<feGaussianBlur stdDeviation="2" result="effect1_foregroundBlur_402_2"/>
</filter>
<linearGradient id="paint0_linear_402_2" x1="459.108" y1="103.486" x2="492.291" y2="72.5525" gradientUnits="userSpaceOnUse">
<stop stop-color="#F67C01"/>
<stop offset="1" stop-color="#BB5E00"/>
</linearGradient>
<linearGradient id="paint1_linear_402_2" x1="514.49" y1="22.852" x2="546.376" y2="56.4559" gradientUnits="userSpaceOnUse">
<stop offset="0.213542" stop-color="#D2CECE"/>
<stop offset="1" stop-color="#393535"/>
</linearGradient>
<linearGradient id="paint2_linear_402_2" x1="514.49" y1="22.852" x2="546.376" y2="56.4559" gradientUnits="userSpaceOnUse">
<stop offset="0.213542" stop-color="#D2CECE"/>
<stop offset="1" stop-color="#393535"/>
</linearGradient>
<linearGradient id="paint3_linear_402_2" x1="502.807" y1="77.8406" x2="518.086" y2="93.9425" gradientUnits="userSpaceOnUse">
<stop stop-color="#404040"/>
<stop offset="1"/>
</linearGradient>
<linearGradient id="paint4_linear_402_2" x1="488.857" y1="63.1389" x2="472.25" y2="45.6369" gradientUnits="userSpaceOnUse">
<stop/>
<stop offset="1" stop-color="#7A7A7A"/>
</linearGradient>
<linearGradient id="paint5_linear_402_2" x1="549.208" y1="0.553052" x2="569.8" y2="22.2556" gradientUnits="userSpaceOnUse">
<stop stop-color="#8C8B8B"/>
<stop offset="1"/>
</linearGradient>
<linearGradient id="paint6_linear_402_2" x1="478.014" y1="60.1239" x2="505.914" y2="89.5273" gradientUnits="userSpaceOnUse">
<stop offset="0.1875" stop-color="white"/>
<stop offset="1" stop-color="#393535"/>
</linearGradient>
<linearGradient id="paint7_linear_402_2" x1="543.086" y1="-0.290306" x2="570.986" y2="29.1132" gradientUnits="userSpaceOnUse">
<stop offset="0.135417" stop-color="white"/>
<stop offset="1" stop-color="#393535"/>
</linearGradient>
<linearGradient id="paint8_linear_402_2" x1="543.555" y1="33.8547" x2="534.92" y2="24.7536" gradientUnits="userSpaceOnUse">
<stop offset="0.0885417" stop-color="#212121"/>
<stop offset="1" stop-color="#606060"/>
</linearGradient>
<linearGradient id="paint9_linear_402_2" x1="161.926" y1="220.044" x2="231.062" y2="378.101" gradientUnits="userSpaceOnUse">
<stop stop-color="#C50D15"/>
<stop offset="1" stop-color="#280001"/>
</linearGradient>
<linearGradient id="paint10_linear_402_2" x1="144.681" y1="267.014" x2="155.32" y2="291.33" gradientUnits="userSpaceOnUse">
<stop stop-color="#1F0406"/>
<stop offset="1" stop-color="#A8111A"/>
</linearGradient>
<linearGradient id="paint11_linear_402_2" x1="236.385" y1="237.346" x2="240.976" y2="245.306" gradientUnits="userSpaceOnUse">
<stop stop-color="#190306"/>
<stop offset="1" stop-color="#E0131F"/>
</linearGradient>
<linearGradient id="paint12_linear_402_2" x1="266.637" y1="305.634" x2="276.145" y2="308.945" gradientUnits="userSpaceOnUse">
<stop stop-color="#2E0508"/>
<stop offset="1" stop-color="#7D060D"/>
</linearGradient>
<linearGradient id="paint13_linear_402_2" x1="186.748" y1="214.043" x2="187.362" y2="219.405" gradientUnits="userSpaceOnUse">
<stop stop-color="#420609"/>
<stop offset="1" stop-color="#DF131E"/>
</linearGradient>
<linearGradient id="paint14_linear_402_2" x1="202.263" y1="335.138" x2="208.975" y2="370.086" gradientUnits="userSpaceOnUse">
<stop stop-color="#150305"/>
<stop offset="1" stop-color="#70090F"/>
</linearGradient>
<linearGradient id="paint15_linear_402_2" x1="116.824" y1="342.207" x2="108.53" y2="310.689" gradientUnits="userSpaceOnUse">
<stop stop-color="#6F060A"/>
<stop offset="1" stop-color="#8C080E"/>
</linearGradient>
<linearGradient id="paint16_linear_402_2" x1="119.713" y1="341.327" x2="110.909" y2="309.931" gradientUnits="userSpaceOnUse">
<stop stop-color="#6F060A"/>
<stop offset="1" stop-color="#8C080E"/>
</linearGradient>
<linearGradient id="paint17_linear_402_2" x1="213.035" y1="382.292" x2="179.944" y2="383.973" gradientUnits="userSpaceOnUse">
<stop stop-color="#2A0001"/>
<stop offset="1" stop-color="#360103"/>
</linearGradient>
<linearGradient id="paint18_linear_402_2" x1="213.176" y1="380.305" x2="179.966" y2="380.298" gradientUnits="userSpaceOnUse">
<stop stop-color="#2A0001"/>
<stop offset="1" stop-color="#360103"/>
</linearGradient>
<linearGradient id="paint19_linear_402_2" x1="269.436" y1="347.183" x2="281.047" y2="322.3" gradientUnits="userSpaceOnUse">
<stop stop-color="#380103"/>
<stop offset="1" stop-color="#470205"/>
</linearGradient>
<linearGradient id="paint20_linear_402_2" x1="267.012" y1="346.08" x2="278.526" y2="321.152" gradientUnits="userSpaceOnUse">
<stop stop-color="#380103"/>
<stop offset="1" stop-color="#470205"/>
</linearGradient>
<linearGradient id="paint21_linear_402_2" x1="259.482" y1="236.043" x2="271.094" y2="250.972" gradientUnits="userSpaceOnUse">
<stop stop-color="#92090E"/>
<stop offset="1" stop-color="#82070C"/>
</linearGradient>
<linearGradient id="paint22_linear_402_2" x1="258.157" y1="236.947" x2="269.386" y2="252.197" gradientUnits="userSpaceOnUse">
<stop stop-color="#92090E"/>
<stop offset="1" stop-color="#82070C"/>
</linearGradient>
<linearGradient id="paint23_linear_402_2" x1="171.923" y1="146.59" x2="142.924" y2="162.486" gradientUnits="userSpaceOnUse">
<stop stop-color="#778186"/>
<stop offset="1" stop-color="#474B4C"/>
</linearGradient>
<linearGradient id="paint24_linear_402_2" x1="172.353" y1="147.879" x2="144.428" y2="162.915" gradientUnits="userSpaceOnUse">
<stop stop-color="#C1C1C1"/>
<stop offset="1" stop-color="#929292"/>
</linearGradient>
<linearGradient id="paint25_linear_402_2" x1="201.351" y1="146.805" x2="175.145" y2="287.073" gradientUnits="userSpaceOnUse">
<stop stop-color="#D4853F"/>
<stop offset="1" stop-color="#D79962"/>
</linearGradient>
<linearGradient id="paint26_linear_402_2" x1="201.352" y1="146.805" x2="175.145" y2="287.073" gradientUnits="userSpaceOnUse">
<stop stop-color="#A25D21"/>
<stop offset="1" stop-color="#D79962"/>
</linearGradient>
<linearGradient id="paint27_linear_402_2" x1="201.352" y1="146.805" x2="175.145" y2="287.073" gradientUnits="userSpaceOnUse">
<stop stop-color="#995316"/>
<stop offset="1" stop-color="#D79962"/>
</linearGradient>
<linearGradient id="paint28_linear_402_2" x1="180.3" y1="188.907" x2="184.167" y2="186.974" gradientUnits="userSpaceOnUse">
<stop stop-color="#6A4222"/>
<stop offset="1" stop-color="#D58947"/>
</linearGradient>
<linearGradient id="paint29_linear_402_2" x1="158.82" y1="160.338" x2="160.109" y2="164.419" gradientUnits="userSpaceOnUse">
<stop stop-color="#D48845"/>
<stop offset="1" stop-color="#4E3219"/>
</linearGradient>
<linearGradient id="paint30_linear_402_2" x1="177.938" y1="151.101" x2="180.73" y2="150.886" gradientUnits="userSpaceOnUse">
<stop stop-color="#D48641" stop-opacity="0"/>
<stop offset="1" stop-color="#4E3219"/>
</linearGradient>
<linearGradient id="paint31_linear_402_2" x1="149.584" y1="178.596" x2="151.019" y2="192.159" gradientUnits="userSpaceOnUse">
<stop stop-color="#D58A49"/>
<stop offset="1" stop-color="#281709"/>
</linearGradient>
<linearGradient id="paint32_linear_402_2" x1="119.014" y1="119.954" x2="169.923" y2="128.117" gradientUnits="userSpaceOnUse">
<stop stop-color="#9F9F9F"/>
<stop offset="1" stop-color="#787877"/>
</linearGradient>
<linearGradient id="paint33_linear_402_2" x1="119.873" y1="127.687" x2="159.182" y2="128.761" gradientUnits="userSpaceOnUse">
<stop stop-color="#CBCBCB"/>
<stop offset="1" stop-color="#828380"/>
</linearGradient>
<linearGradient id="paint34_linear_402_2" x1="129.354" y1="132.885" x2="173.175" y2="133.959" gradientUnits="userSpaceOnUse">
<stop stop-color="#1B0A5D"/>
<stop offset="0.390625" stop-color="#1B0A5D"/>
<stop offset="0.970597" stop-color="#010005"/>
</linearGradient>
<linearGradient id="paint35_linear_402_2" x1="159.427" y1="114.626" x2="136.228" y2="131.381" gradientUnits="userSpaceOnUse">
<stop stop-color="#FFF9FF" stop-opacity="0.36"/>
<stop offset="1" stop-color="#1B0A5D" stop-opacity="0"/>
</linearGradient>
<linearGradient id="paint36_linear_402_2" x1="127.176" y1="132.413" x2="174.863" y2="132.413" gradientUnits="userSpaceOnUse">
<stop stop-color="#5B5C59"/>
<stop offset="1" stop-color="#3F403E"/>
</linearGradient>
</defs>
</svg>
